<?xml version="1.0" encoding="UTF-8"?>
<svg version="1.1" xmlns="http://www.w3.org/2000/svg" width="900" height="900">
<path d="M0 0 C297 0 594 0 900 0 C900 297 900 594 900 900 C603 900 306 900 0 900 C0 603 0 306 0 0 Z " fill="#1B84D8" transform="translate(0,0)"/>
<path d="M0 0 C148.5 0 297 0 450 0 C450 85.14 450 170.28 450 258 C441.42 258.33 432.84 258.66 424 259 C424 279.13 424 299.26 424 320 C413.77 320.33 403.54 320.66 393 321 C392.67 300.87 392.34 280.74 392 260 C375.01865861 258.22055615 375.01865861 258.22055615 358 260 C357.97667275 280.45298474 357.95902168 300.90596679 357.94818783 321.35896206 C357.9430245 330.85495383 357.93598111 340.35093735 357.92456055 349.84692383 C357.91461483 358.12052845 357.90814684 366.39412711 357.90591151 374.66773754 C357.90460421 379.0513359 357.90151715 383.43491716 357.89426994 387.81851006 C357.88751149 391.939635 357.88538268 396.06073573 357.88689232 400.18186569 C357.88661591 401.69886341 357.88460975 403.2158619 357.88079453 404.73285484 C357.87585999 406.79507301 357.8770008 408.85719826 357.87974548 410.91941833 C357.87882369 412.07626853 357.8779019 413.23311872 357.87695217 414.42502499 C357.70744044 416.93162361 357.70744044 416.93162361 359 418 C361.51856175 418.15986946 364.01364174 418.25941894 366.53515625 418.31640625 C367.20252808 418.33505737 367.8698999 418.3537085 368.55749512 418.3729248 C371.05902417 418.44140741 373.56077882 418.50143787 376.0625 418.5625 C384.4465625 418.7790625 384.4465625 418.7790625 393 419 C393 397.22 393 375.44 393 353 C403.23 353.33 413.46 353.66 424 354 C424 375.78 424 397.56 424 420 C432.58 420 441.16 420 450 420 C450 578.4 450 736.8 450 900 C301.5 900 153 900 0 900 C0 603 0 306 0 0 Z " fill="#E13223" transform="translate(0,0)"/>
<path d="M0 0 C1.08590927 -0.0049926 1.08590927 -0.0049926 2.1937561 -0.01008606 C3.72877363 -0.01515864 5.26380222 -0.01749428 6.79882812 -0.01733398 C9.14732099 -0.0195157 11.49534065 -0.03765412 13.84375 -0.05664062 C15.33333172 -0.05957544 16.82291568 -0.06155965 18.3125 -0.0625 C19.01571381 -0.06968552 19.71892761 -0.07687103 20.44345093 -0.08427429 C24.12200939 -0.06705421 25.64115224 0.06936191 28.7890625 2.16796875 C29.14982605 4.76223755 29.14982605 4.76223755 29.12963867 8.08642578 C29.12929878 9.94812912 29.12929878 9.94812912 29.12895203 11.84744263 C29.11363098 13.20689247 29.09798297 14.56633866 29.08203125 15.92578125 C29.07643677 17.31297345 29.07216597 18.70017158 29.06916809 20.08737183 C29.05770747 23.74046156 29.02823036 27.39319409 28.99505615 31.04614258 C28.96438117 34.77290006 28.95066829 38.4997152 28.93554688 42.2265625 C28.90336136 49.54052752 28.85215089 56.85419811 28.7890625 64.16796875 C30.4390625 63.50796875 32.0890625 62.84796875 33.7890625 62.16796875 C42.3690625 62.16796875 50.9490625 62.16796875 59.7890625 62.16796875 C59.7890625 42.03796875 59.7890625 21.90796875 59.7890625 1.16796875 C63.35833635 -0.0217892 66.58853222 0.0431872 70.30078125 0.0703125 C71.02900589 0.07172745 71.75723053 0.0731424 72.50752258 0.07460022 C74.83057789 0.08019216 77.15353638 0.09274313 79.4765625 0.10546875 C81.05273298 0.11048479 82.62890498 0.11504752 84.20507812 0.11914062 C88.06644348 0.13015895 91.92773658 0.14741801 95.7890625 0.16796875 C95.81238962 21.01210478 95.83004076 41.85623867 95.84087467 62.70038509 C95.84603803 72.37797926 95.85308147 82.05556533 95.86450195 91.7331543 C95.87444759 100.16497206 95.88091564 108.59678396 95.88315099 117.02860743 C95.88445831 121.49604267 95.88754545 125.96346115 95.89479256 130.43089104 C95.90155088 134.63081035 95.90367985 138.83070588 95.90217018 143.03063011 C95.90244659 144.57665384 95.90445283 146.12267831 95.90826797 147.66869736 C95.9132023 149.77032651 95.91206178 151.87186447 95.90931702 153.97349548 C95.91023881 155.15246871 95.9111606 156.33144194 95.91211033 157.54614162 C95.7890625 160.16796875 95.7890625 160.16796875 94.7890625 161.16796875 C92.20716804 161.2688835 89.6525975 161.30768374 87.0703125 161.30078125 C85.91070007 161.30221634 85.91070007 161.30221634 84.72766113 161.30368042 C83.09008706 161.30436216 81.45251031 161.30250832 79.81494141 161.29833984 C77.29974329 161.29299146 74.78472377 161.29828501 72.26953125 161.3046875 C70.68229127 161.30402672 69.0950514 161.30274555 67.5078125 161.30078125 C66.75052856 161.30280548 65.99324463 161.30482971 65.2130127 161.30691528 C59.90401382 161.28292007 59.90401382 161.28292007 58.7890625 160.16796875 C58.69501108 158.17365145 58.67163001 156.17597332 58.67553711 154.17944336 C58.67565041 152.25756447 58.67565041 152.25756447 58.67576599 150.29685974 C58.68087341 148.88801027 58.68608941 147.47916119 58.69140625 146.0703125 C58.69327048 144.63684641 58.69469436 143.20337968 58.69569397 141.76991272 C58.69951878 137.99036918 58.70934873 134.21086385 58.72039795 130.43133545 C58.73061287 126.57727577 58.73519176 122.72320993 58.74023438 118.86914062 C58.75097104 111.30206588 58.76804701 103.73502266 58.7890625 96.16796875 C57.95882568 96.17582397 57.95882568 96.17582397 57.11181641 96.18383789 C54.54591051 96.20493119 51.98002296 96.21772994 49.4140625 96.23046875 C48.54394531 96.23884766 47.67382812 96.24722656 46.77734375 96.25585938 C40.72046171 96.27829227 34.80269108 95.88588107 28.7890625 95.16796875 C28.79128311 95.99260117 28.79350372 96.81723358 28.79579163 97.66685486 C28.81579302 105.42195132 28.83103585 113.17703536 28.84087467 120.93215084 C28.84610286 124.91954075 28.85319934 128.90690942 28.86450195 132.89428711 C28.87533311 136.73921989 28.88133982 140.5841322 28.88393974 144.42907906 C28.88579358 145.89915858 28.88941341 147.36923693 28.89479256 148.83930779 C28.90200605 150.89151342 28.90305331 152.94363342 28.90258789 154.99584961 C28.9048085 156.16611191 28.90702911 157.33637421 28.90931702 158.542099 C28.7890625 161.16796875 28.7890625 161.16796875 27.7890625 162.16796875 C26.21085332 162.26756995 24.62822271 162.29877337 23.046875 162.30078125 C22.06203125 162.30207031 21.0771875 162.30335938 20.0625 162.3046875 C19.02351563 162.30082031 17.98453125 162.29695312 16.9140625 162.29296875 C15.41359375 162.29876953 15.41359375 162.29876953 13.8828125 162.3046875 C-5.09874272 162.28016353 -5.09874272 162.28016353 -8.2109375 159.16796875 C-8.45982647 156.45712185 -8.45982647 156.45712185 -8.45817566 152.93589783 C-8.46059007 152.28969327 -8.46300449 151.64348871 -8.46549207 150.9777022 C-8.47114807 148.80266034 -8.4624519 146.62790972 -8.45385742 144.45288086 C-8.45492983 142.89757711 -8.45686788 141.34227375 -8.45960999 139.78697205 C-8.46446776 135.55571406 -8.45679137 131.32456112 -8.44665694 127.09331584 C-8.43789295 122.67350424 -8.43963356 118.25369608 -8.4400177 113.83387756 C-8.43908039 106.41161331 -8.43038697 98.98938988 -8.41674805 91.56713867 C-8.40101604 82.97383914 -8.3957501 74.38058433 -8.3964836 65.78727144 C-8.39709299 57.53474996 -8.39199609 49.28224312 -8.38369179 41.02972603 C-8.3801523 37.51099089 -8.37832759 33.99226093 -8.37779808 30.47352409 C-8.37679686 26.3343052 -8.37071842 22.19512416 -8.36063194 18.05591774 C-8.35770002 16.53247179 -8.35648296 15.00902148 -8.35705948 13.48557281 C-8.35754678 11.41469305 -8.35192817 9.34392087 -8.34465027 7.27305603 C-8.34297442 6.11142913 -8.34129858 4.94980223 -8.33957195 3.75297451 C-8.08248284 -1.41342398 -4.18358777 0.00658256 0 0 Z " fill="#F1EFE8" transform="translate(351.2109375,532.83203125)"/>
<path d="M0 0 C0.69971924 0.03907471 1.39943848 0.07814941 2.12036133 0.1184082 C7.06527369 0.44027369 7.06527369 0.44027369 8.1875 1.5625 C8.28141296 3.46493762 8.30493658 5.37088459 8.30102539 7.27563477 C8.30094986 8.4968251 8.30087433 9.71801544 8.30079651 10.97621155 C8.29568911 12.31877686 8.29047311 13.66134175 8.28515625 15.00390625 C8.28329199 16.37011158 8.28186813 17.73631757 8.28086853 19.1025238 C8.27704394 22.70451695 8.26721417 26.30647 8.25616455 29.90844727 C8.24594916 33.58153745 8.24137064 37.25463409 8.23632812 40.92773438 C8.22559184 48.13934123 8.20851614 55.350915 8.1875 62.5625 C8.8475 62.2325 9.5075 61.9025 10.1875 61.5625 C19.7575 61.5625 29.3275 61.5625 39.1875 61.5625 C39.1875 41.4325 39.1875 21.3025 39.1875 0.5625 C51.15696005 -2.42986501 63.84966298 -0.4375 76.1875 -0.4375 C76.1875 53.0225 76.1875 106.4825 76.1875 161.5625 C63.9775 161.5625 51.7675 161.5625 39.1875 161.5625 C39.1875 139.7825 39.1875 118.0025 39.1875 95.5625 C31.9275 95.5625 24.6675 95.5625 17.1875 95.5625 C14.2175 95.2325 11.2475 94.9025 8.1875 94.5625 C8.1875 116.3425 8.1875 138.1225 8.1875 160.5625 C2.61875 160.60375 -2.95 160.645 -8.6875 160.6875 C-10.44433105 160.70570801 -12.20116211 160.72391602 -14.01123047 160.74267578 C-15.40071303 160.74851593 -16.79019901 160.75361262 -18.1796875 160.7578125 C-18.90357666 160.76804443 -19.62746582 160.77827637 -20.37329102 160.78881836 C-22.18792936 160.78945396 -24.00201973 160.68527575 -25.8125 160.5625 C-27.8125 158.5625 -27.8125 158.5625 -28.05859566 155.86447716 C-28.05675207 154.70854876 -28.05490849 153.55262035 -28.05300903 152.36166382 C-28.05471788 151.71883725 -28.05642673 151.07601068 -28.05818737 150.41370451 C-28.06149328 148.2501378 -28.05046078 146.0868782 -28.03955078 143.92333984 C-28.0389869 142.37626655 -28.03930277 140.82919273 -28.04043579 139.28211975 C-28.04101122 135.07364815 -28.02922621 130.86528982 -28.01528788 126.65684462 C-28.00281215 122.26192767 -28.00161252 117.86700833 -27.99923706 113.47207642 C-27.99301298 105.14582398 -27.97658965 96.81962386 -27.95653808 88.49339449 C-27.9342079 79.01590579 -27.92319291 69.53841462 -27.91314721 60.06090617 C-27.8922242 40.56140775 -27.85703024 21.06195808 -27.8125 1.5625 C-19.18891871 -2.11173722 -9.21624353 -0.52892862 0 0 Z " fill="#F1EFE8" transform="translate(384.8125,258.4375)"/>
<path d="M0 0 C14.85 0 29.7 0 45 0 C46.19020895 2.3804179 46.38303781 4.35787221 46.75 7 C47.61519097 12.42533287 48.924599 17.60462533 50.4375 22.875 C52.41542939 29.79168996 54.08125703 36.69754966 55.52832031 43.74707031 C56.58157521 48.77783439 57.70058588 53.79444143 58.8125 58.8125 C59.0693457 59.97225342 59.32619141 61.13200684 59.59082031 62.3269043 C61.6093002 71.37957506 63.76281019 80.39550726 65.95581055 89.40722656 C67.57403193 96.09924064 68.99947194 102.79219538 70.29296875 109.5546875 C71.06104098 113.2974483 71.98145079 116.98965128 72.9375 120.6875 C75.14357045 129.24344728 76.85883707 137.88551157 78.52050781 146.56152344 C78.86382228 148.30746279 79.22455635 150.05001226 79.59667969 151.79003906 C79.78907227 152.6972168 79.98146484 153.60439453 80.1796875 154.5390625 C80.35999512 155.36873535 80.54030273 156.1984082 80.72607422 157.05322266 C80.86166748 158.01687744 80.86166748 158.01687744 81 159 C78.96876925 161.03123075 74.82231134 160.25669618 72.02734375 160.31640625 C71.22970108 160.33718735 70.43205841 160.35796844 69.61024475 160.37937927 C67.05275389 160.44496158 64.4951572 160.50379967 61.9375 160.5625 C60.20767118 160.60567699 58.47785321 160.64929101 56.74804688 160.69335938 C52.4988074 160.80065172 48.2494611 160.90189426 44 161 C43.88406494 160.39003174 43.76812988 159.78006348 43.64868164 159.15161133 C43.12019894 156.371861 42.59135286 153.59217993 42.0625 150.8125 C41.88009766 149.85279297 41.69769531 148.89308594 41.50976562 147.90429688 C41.33251953 146.97294922 41.15527344 146.04160156 40.97265625 145.08203125 C40.81031494 144.22843018 40.64797363 143.3748291 40.48071289 142.49536133 C39.99896009 139.99460188 39.49945677 137.49728383 39 135 C27.78 135 16.56 135 5 135 C4.42382561 141.64018745 4.42382561 141.64018745 3.86376953 148.28173828 C3.7494458 149.53833252 3.7494458 149.53833252 3.6328125 150.8203125 C3.55949707 151.66867676 3.48618164 152.51704102 3.41064453 153.39111328 C3 156 3 156 1 162 C-10.88 162 -22.76 162 -35 162 C-34.33915582 156.05240241 -33.58558854 150.38476463 -32.375 144.5625 C-32.12484131 143.33382202 -32.12484131 143.33382202 -31.86962891 142.08032227 C-31.25143997 139.05249678 -30.62605203 136.02620962 -30 133 C-29.71998629 131.64421932 -29.4400424 130.28842421 -29.16015625 128.93261719 C-28.93783829 127.85576408 -28.93783829 127.85576408 -28.71102905 126.75715637 C-28.40202632 125.26001593 -28.09312849 123.76285383 -27.78433228 122.26567078 C-27.01263746 118.52437329 -26.23943154 114.78340638 -25.46240234 111.04321289 C-24.22096275 105.05137628 -22.99065032 99.06378688 -21.9375 93.03515625 C-21.09056897 88.27351188 -19.92193245 83.65638295 -18.625 79 C-16.60751263 71.56919528 -14.91413884 64.1154836 -13.3815918 56.57104492 C-12.53487825 52.4358219 -11.6083861 48.37116738 -10.4375 44.3125 C-9.05084886 39.47034388 -8.15463863 34.59134035 -7.26977539 29.63549805 C-6.16324172 23.58554478 -4.79938569 17.60741992 -3.375 11.625 C-3.04749756 10.24175537 -3.04749756 10.24175537 -2.71337891 8.83056641 C-1.13035537 2.26071073 -1.13035537 2.26071073 0 0 Z " fill="#EEEFEB" transform="translate(496,533)"/>
<path d="M0 0 C1.051875 1.299375 1.051875 1.299375 2.125 2.625 C2.62515625 3.16382813 3.1253125 3.70265625 3.640625 4.2578125 C11.1296833 12.94657432 11.47366883 23.90905853 11.328125 34.921875 C11.125 37.625 11.125 37.625 10.125 38.625 C3.29250301 39.78815127 -3.45960239 39.74126804 -10.375 39.6875 C-11.48359375 39.68298828 -12.5921875 39.67847656 -13.734375 39.67382812 C-16.44797399 39.66213158 -19.16145761 39.64574086 -21.875 39.625 C-22.04515625 38.75617188 -22.2153125 37.88734375 -22.390625 36.9921875 C-24.1422483 28.1060798 -24.1422483 28.1060798 -28.875 20.625 C-33.31784436 17.88874178 -37.80756567 17.975118 -42.875 18.625 C-46.56562733 20.58809964 -47.69220211 22.30205706 -49.75 25.9375 C-51.36121166 31.21869376 -50.64848205 34.69129489 -48.625 39.75 C-44.88216748 45.89893914 -39.5944558 49.32541536 -33.5625 52.9375 C-32.77359375 53.41678955 -31.9846875 53.8960791 -31.171875 54.38989258 C-26.02294518 57.47255686 -20.78661813 60.22492961 -15.375 62.8125 C-8.80492883 65.97435177 -3.23278139 69.61419874 2.125 74.625 C3.03185547 75.43517578 3.03185547 75.43517578 3.95703125 76.26171875 C8.82835892 81.15675117 9.91072261 86.99452129 11.125 93.625 C11.30933594 94.6253125 11.49367188 95.625625 11.68359375 96.65625 C14.03615677 112.47879776 10.57903768 127.80377082 1.125 140.625 C-6.14758634 148.5121711 -19.3860221 156.03529717 -30.29296875 156.79296875 C-46.42554209 156.90673866 -63.44951332 156.04659828 -75.875 144.625 C-84.51993916 134.63700779 -89.40328226 125.61781611 -89.0625 112.1875 C-89.04896484 111.16978516 -89.03542969 110.15207031 -89.02148438 109.10351562 C-88.9863661 106.61011786 -88.93718559 104.11784488 -88.875 101.625 C-87.30638492 101.30275705 -85.73727562 100.98291939 -84.16796875 100.6640625 C-82.85735474 100.39650146 -82.85735474 100.39650146 -81.52026367 100.12353516 C-72.3493742 98.39515894 -63.17145445 98.51344255 -53.875 98.625 C-53.77703125 99.60339844 -53.6790625 100.58179688 -53.578125 101.58984375 C-52.49222213 112.66891239 -52.49222213 112.66891239 -47.875 122.625 C-44.37053966 125.39596864 -41.71032101 125.83209139 -37.375 125.5625 C-33.08460888 124.88963934 -30.18185965 123.52858408 -26.875 120.625 C-24.30760516 115.35695453 -23.99845135 110.37638937 -24.875 104.625 C-27.43637551 98.30105219 -30.78483417 93.85651656 -36.875 90.625 C-37.92300781 90.01914062 -38.97101562 89.41328125 -40.05078125 88.7890625 C-42.63300934 87.30759516 -45.23994571 85.90197074 -47.890625 84.546875 C-65.68643709 75.44901601 -81.26142709 65.46571874 -87.875 45.625 C-88.9226347 33.83977265 -89.2369582 21.96951028 -82.875 11.625 C-82.44058594 10.90699219 -82.00617187 10.18898438 -81.55859375 9.44921875 C-75.40830369 0.42528889 -66.47150584 -7.79922601 -55.6171875 -10.05078125 C-37.08080312 -12.99338223 -15.08684241 -12.46304373 0 0 Z " fill="#EEEFEB" transform="translate(634.875,266.375)"/>
<path d="M0 0 C0.90185532 0.00202423 1.80371063 0.00404846 2.7328949 0.00613403 C3.67753098 0.00438171 4.62216705 0.00262939 5.59542847 0.00082397 C8.73436797 -0.00359624 11.87325164 -0.00065595 15.01219177 0.00271606 C17.18313101 0.00204307 19.35407018 0.00107309 21.52500916 -0.00018311 C26.08145361 -0.00166031 30.6378785 0.0004952 35.19432068 0.00515747 C41.04920763 0.01085477 46.90404875 0.00757588 52.75893402 0.00158501 C57.24374235 -0.00202 61.72853973 -0.0008823 66.21334839 0.0017128 C68.37282313 0.00238224 70.53229886 0.00155307 72.69177246 -0.00076675 C75.70420485 -0.00329229 78.7165619 0.00054592 81.72898865 0.00613403 C82.63084396 0.0041098 83.53269928 0.00208557 84.46188354 0 C90.61667946 0.02126625 90.61667946 0.02126625 91.73094177 1.13552856 C91.81885152 3.42704274 91.83788216 5.72125381 91.82859802 8.01443481 C91.82610046 9.27070679 91.82360291 10.52697876 91.82102966 11.82131958 C91.81192566 13.43063354 91.80282166 15.03994751 91.79344177 16.69802856 C91.77281677 21.79240356 91.75219177 26.88677856 91.73094177 32.13552856 C81.50094177 32.13552856 71.27094177 32.13552856 60.73094177 32.13552856 C60.73094177 75.03552856 60.73094177 117.93552856 60.73094177 162.13552856 C48.85094177 162.13552856 36.97094177 162.13552856 24.73094177 162.13552856 C23.46598402 159.60561305 23.60791566 157.86821087 23.61068726 155.03564453 C23.60931259 153.95588348 23.60793793 152.87612244 23.60652161 151.76364136 C23.61011688 150.57393738 23.61371216 149.3842334 23.61741638 148.15847778 C23.61727036 146.9097287 23.61712433 145.66097961 23.61697388 144.37438965 C23.61755225 140.94484193 23.62257659 137.51535399 23.62954783 134.08581686 C23.63578799 130.50368519 23.6363857 126.92155277 23.63757324 123.3394165 C23.6406846 116.55377606 23.64889536 109.76815168 23.65892273 102.98251832 C23.67008993 95.2583164 23.67559585 87.53411374 23.68061817 79.80990577 C23.69107813 63.91843581 23.70942119 48.02698798 23.73094177 32.13552856 C13.50094177 32.13552856 3.27094177 32.13552856 -7.26905823 32.13552856 C-7.28968323 27.04115356 -7.31030823 21.94677856 -7.33155823 16.69802856 C-7.34066223 15.0887146 -7.34976624 13.47940063 -7.35914612 11.82131958 C-7.36164368 10.56504761 -7.36414124 9.30877563 -7.36671448 8.01443481 C-7.37195129 6.72094116 -7.37718811 5.42744751 -7.38258362 4.09475708 C-7.17865968 -1.22086031 -4.70662591 0.01626249 0 0 Z " fill="#F1EEE7" transform="translate(234.26905822753906,531.8644714355469)"/>
<path d="M0 0 C1.36916565 0.00539291 1.36916565 0.00539291 2.76599121 0.01089478 C3.72198715 0.01074875 4.67798309 0.01060272 5.66294861 0.01045227 C8.83916452 0.01115181 12.01532259 0.01894614 15.19152832 0.02676392 C17.387283 0.02862795 19.58303809 0.03005192 21.77879333 0.03105164 C27.5705784 0.03487798 33.36233857 0.04470926 39.15411377 0.05575562 C45.05915998 0.06596724 50.9642102 0.07054872 56.8692627 0.07559204 C68.46497855 0.08633142 80.06066935 0.10392916 91.65637207 0.12442017 C91.65637207 10.68442017 91.65637207 21.24442017 91.65637207 32.12442017 C81.42637207 32.12442017 71.19637207 32.12442017 60.65637207 32.12442017 C60.66160889 36.02697632 60.6668457 39.92953247 60.67224121 43.9503479 C60.68877354 56.81061015 60.69989269 69.67087223 60.70818424 82.53114223 C60.71334725 90.33217853 60.72039004 98.13320477 60.73181152 105.93423462 C60.74175822 112.7311833 60.74822546 119.5281247 60.75046057 126.32508045 C60.7517677 129.92620148 60.75485371 133.52730169 60.76210213 137.12841606 C60.77011571 141.14198619 60.77036322 145.15551981 60.76989746 149.1690979 C60.77349274 150.37174789 60.77708801 151.57439789 60.78079224 152.81349182 C60.77941757 153.90029236 60.77804291 154.9870929 60.77662659 156.10682678 C60.77754838 157.05719535 60.77847017 158.00756392 60.7794199 158.98673153 C60.65637207 161.12442017 60.65637207 161.12442017 59.65637207 162.12442017 C57.07447761 162.22533492 54.51990707 162.26413515 51.93762207 162.25723267 C50.77800964 162.25866776 50.77800964 162.25866776 49.5949707 162.26013184 C47.95739664 162.26081357 46.31981988 162.25895973 44.68225098 162.25479126 C42.16705287 162.24944288 39.65203334 162.25473643 37.13684082 162.26113892 C35.54960084 162.26047813 33.96236097 162.25919697 32.37512207 162.25723267 C31.61783813 162.2592569 30.8605542 162.26128113 30.08032227 162.2633667 C24.77132339 162.23937148 24.77132339 162.23937148 23.65637207 161.12442017 C23.560204 159.4415032 23.53449517 157.75452456 23.53611755 156.06886292 C23.53474289 154.97364822 23.53336823 153.87843353 23.5319519 152.75003052 C23.53554718 151.53802979 23.53914246 150.32602905 23.54284668 149.07730103 C23.54270065 147.80919083 23.54255463 146.54108063 23.54240417 145.23454285 C23.54211622 141.74709595 23.54801262 138.25968316 23.55497813 134.77224422 C23.561212 131.13138293 23.56181549 127.49052095 23.56300354 123.84965515 C23.56611676 116.95065045 23.57433002 110.05166151 23.58435303 103.15266377 C23.59551446 95.30031332 23.60102469 87.44796213 23.60604846 79.59560573 C23.61651264 63.43853318 23.63485801 47.28148236 23.65637207 31.12442017 C13.42637207 31.12442017 3.19637207 31.12442017 -7.34362793 31.12442017 C-7.36425293 26.19504517 -7.38487793 21.26567017 -7.40612793 16.18692017 C-7.41523193 14.62981323 -7.42433594 13.0727063 -7.43371582 11.46841431 C-7.43621338 10.2527478 -7.43871094 9.0370813 -7.44128418 7.78457642 C-7.446521 6.53297729 -7.45175781 5.28137817 -7.45715332 3.99185181 C-7.2488517 -1.26944393 -4.62431955 0.00769635 0 0 Z " fill="#F0EFEA" transform="translate(577.3436279296875,531.8755798339844)"/>
<path d="M0 0 C32.01 0 64.02 0 97 0 C99.02492589 4.04985178 99.24741128 5.66415459 99.23046875 10.04296875 C99.22853516 11.19861328 99.22660156 12.35425781 99.22460938 13.54492188 C99.21236328 14.74697266 99.20011719 15.94902344 99.1875 17.1875 C99.1865332 19.00797852 99.1865332 19.00797852 99.18554688 20.86523438 C99.14024712 29.85975288 99.14024712 29.85975288 98 31 C87.77 31 77.54 31 67 31 C67 73.9 67 116.8 67 161 C54.79 161 42.58 161 30 161 C30 118.1 30 75.2 30 31 C20.1 31 10.2 31 0 31 C0 20.77 0 10.54 0 0 Z " fill="#F1F0E9" transform="translate(241,258)"/>
<path d="M0 0 C0.76892578 -0.00386719 1.53785156 -0.00773437 2.33007812 -0.01171875 C16.0739777 0.0114777 16.0739777 0.0114777 18.1875 2.125 C18.29083735 4.14302971 18.3227285 6.16472723 18.32794189 8.18539429 C18.33365204 9.50345566 18.33936218 10.82151703 18.34524536 12.17951965 C18.34649085 13.65402212 18.34761592 15.1285247 18.34863281 16.60302734 C18.35325854 18.14508687 18.35828286 19.68714524 18.36367798 21.22920227 C18.37682772 25.4296233 18.38325194 29.63002834 18.38768864 33.83046675 C18.39061524 36.45219229 18.39471925 39.07391342 18.39919281 41.69563675 C18.41287455 49.8910226 18.42253788 58.08639842 18.4263947 66.28179491 C18.43087721 75.75586263 18.44843116 85.22978621 18.4773953 94.7038101 C18.49898227 102.01762006 18.50909738 109.33138939 18.51043582 116.64523089 C18.511486 121.01774859 18.51743883 125.39013092 18.53525543 129.7626152 C18.55168467 133.87479699 18.55391687 137.98674089 18.54511642 142.09894371 C18.54434327 143.61026965 18.54872521 145.1216081 18.55857468 146.63290215 C18.57121239 148.6924342 18.56546315 150.75111331 18.55499268 152.81063843 C18.55645924 153.96434622 18.5579258 155.11805401 18.5594368 156.30672264 C18.1875 159.125 18.1875 159.125 16.87415695 160.99736977 C14.06777541 162.87360231 10.96886849 162.5103267 7.7109375 162.453125 C6.98508453 162.45125183 6.25923157 162.44937866 5.51138306 162.44744873 C3.97987258 162.4407342 2.44837908 162.42683143 0.91699219 162.40625 C-1.43570767 162.37502379 -3.78773823 162.36527196 -6.140625 162.359375 C-7.62761239 162.3502078 -9.11459294 162.33983293 -10.6015625 162.328125 C-11.30882477 162.32387512 -12.01608704 162.31962524 -12.74478149 162.31524658 C-17.69532244 162.24217756 -17.69532244 162.24217756 -18.8125 161.125 C-18.90928239 159.08738813 -18.93436965 157.04636288 -18.93275452 155.00645447 C-18.93360894 154.36039877 -18.93446337 153.71434307 -18.93534368 153.04870993 C-18.93700024 150.86830183 -18.93147429 148.68796945 -18.92602539 146.50756836 C-18.92574353 144.95079042 -18.92590123 143.39401236 -18.9264679 141.8372345 C-18.92675592 137.59774796 -18.92085846 133.35828946 -18.91389394 129.11880946 C-18.90766115 124.6931858 -18.90705666 120.26756157 -18.90586853 115.8419342 C-18.90275499 107.45546022 -18.8945413 99.0689992 -18.88451904 90.68253094 C-18.8733586 81.13734651 -18.86784763 71.59216148 -18.86282361 62.04697216 C-18.85235871 42.40630752 -18.83475883 22.76565458 -18.8125 3.125 C-12.36416795 0.49654212 -6.89752332 -0.03417435 0 0 Z " fill="#EDEFEC" transform="translate(507.8125,256.875)"/>
<path d="M0 0 C2.49124161 2.43813375 4.3178079 4.95632149 6 8 C6.34474365 8.51925049 6.6894873 9.03850098 7.04467773 9.57348633 C8.48533844 13.23275716 8.3458126 16.90953315 8.37109375 20.7890625 C8.38463646 22.07676041 8.38463646 22.07676041 8.39845276 23.39047241 C8.41294787 25.20770794 8.42184016 27.02499558 8.42553711 28.84228516 C8.43737102 31.59499757 8.48650774 34.34542089 8.53710938 37.09765625 C8.70278482 54.8550328 8.70278482 54.8550328 3 62 C-2.07637228 67.10733733 -6.2901268 68.36996221 -13.5 68.5 C-23.45003147 68.0427558 -30.65710286 67.12351027 -38 60 C-44.15749618 52.85296214 -43.73643749 44.34544304 -43.59692383 35.43457031 C-43.56256618 33.00468016 -43.57631228 30.57842937 -43.59570312 28.1484375 C-43.58516405 17.54768968 -42.54724094 9.00464948 -35 1 C-25.06772055 -8.14815212 -10.98363566 -6.77540839 0 0 Z " fill="#F3ECE6" transform="translate(438,445)"/>
<path d="M0 0 C34.73333333 0 34.73333333 0 42 6.8125 C45.70598216 12.71890907 46.54987116 18.18159765 46 25 C44.02214783 29.88645829 40.02769531 32.78887853 36 36 C36.928125 36.53625 37.85625 37.0725 38.8125 37.625 C42.52093938 40.38815091 43.39845978 41.67956592 45 46 C45.49534815 50.1209142 45.60201461 54.22773728 45.6875 58.375 C45.72166016 59.49261719 45.75582031 60.61023438 45.79101562 61.76171875 C45.87316073 64.50771222 45.94242128 67.25339982 46 70 C42.85418577 70.02888514 39.70840531 70.04675923 36.5625 70.0625 C35.66466797 70.07087891 34.76683594 70.07925781 33.84179688 70.08789062 C32.56079102 70.09272461 32.56079102 70.09272461 31.25390625 70.09765625 C30.46314697 70.10289307 29.6723877 70.10812988 28.85766602 70.11352539 C27 70 27 70 26 69 C25.84213692 67.14825294 25.74892644 65.2909089 25.68359375 63.43359375 C25.64169922 62.30888672 25.59980469 61.18417969 25.55664062 60.02539062 C25.51732422 58.84138672 25.47800781 57.65738281 25.4375 56.4375 C25.39431641 55.24962891 25.35113281 54.06175781 25.30664062 52.83789062 C25.20016454 49.89205216 25.09815159 46.9461257 25 44 C23.02 43.67 21.04 43.34 19 43 C19.00785522 44.17357056 19.00785522 44.17357056 19.01586914 45.37084961 C19.03657106 48.89305833 19.04963838 52.4152543 19.0625 55.9375 C19.07087891 57.16919922 19.07925781 58.40089844 19.08789062 59.66992188 C19.09272461 61.4246582 19.09272461 61.4246582 19.09765625 63.21484375 C19.10551147 64.84087524 19.10551147 64.84087524 19.11352539 66.49975586 C19 69 19 69 18 70 C12.06 70 6.12 70 0 70 C0 46.9 0 23.8 0 0 Z " fill="#E8ECEB" transform="translate(457,442)"/>
<path d="M0 0 C9.57 0 19.14 0 29 0 C29 0.33 29 0.66 29 1 C26.03 1 23.06 1 20 1 C20.05995322 2.79260132 20.1487241 4.58425795 20.25 6.375 C20.29640625 7.37273437 20.3428125 8.37046875 20.390625 9.3984375 C20.72160885 12.1526477 20.72160885 12.1526477 23.046875 13.3515625 C23.69140625 13.56554687 24.3359375 13.77953125 25 14 C23.02 14 21.04 14 19 14 C18.67 32.48 18.34 50.96 18 70 C12.06 70 6.12 70 0 70 C0 46.9 0 23.8 0 0 Z " fill="#ECF0ED" transform="translate(457,442)"/>
<path d="M0 0 C1.36916565 0.00539291 1.36916565 0.00539291 2.76599121 0.01089478 C3.72198715 0.01074875 4.67798309 0.01060272 5.66294861 0.01045227 C8.83916452 0.01115181 12.01532259 0.01894614 15.19152832 0.02676392 C17.387283 0.02862795 19.58303809 0.03005192 21.77879333 0.03105164 C27.5705784 0.03487798 33.36233857 0.04470926 39.15411377 0.05575562 C45.05915998 0.06596724 50.9642102 0.07054872 56.8692627 0.07559204 C68.46497855 0.08633142 80.06066935 0.10392916 91.65637207 0.12442017 C91.65637207 10.35442017 91.65637207 20.58442017 91.65637207 31.12442017 C89.34637207 31.12442017 87.03637207 31.12442017 84.65637207 31.12442017 C84.65637207 30.79442017 84.65637207 30.46442017 84.65637207 30.12442017 C86.63637207 30.12442017 88.61637207 30.12442017 90.65637207 30.12442017 C90.65637207 20.88442017 90.65637207 11.64442017 90.65637207 2.12442017 C58.97637207 2.45442017 27.29637207 2.78442017 -5.34362793 3.12442017 C-5.34362793 12.03442017 -5.34362793 20.94442017 -5.34362793 30.12442017 C-3.18960449 30.1128186 -1.03558105 30.10121704 1.18371582 30.08926392 C3.26208346 30.0814728 5.3404495 30.07539635 7.41882324 30.06948853 C8.8670728 30.06444916 10.31531724 30.05761763 11.7635498 30.04898071 C13.84111795 30.0368977 15.91861904 30.03118805 17.99621582 30.02676392 C19.24781494 30.0215271 20.49941406 30.01629028 21.78894043 30.01089478 C24.65637207 30.12442017 24.65637207 30.12442017 25.65637207 31.12442017 C25.7525134 32.79466686 25.77824929 34.46900293 25.77662659 36.14201355 C25.77800125 37.22881409 25.77937592 38.31561462 25.78079224 39.43534851 C25.77539932 41.2393235 25.77539932 41.2393235 25.76989746 43.07974243 C25.77004349 44.33809906 25.77018951 45.59645569 25.77033997 46.89294434 C25.77062792 50.3535327 25.76473156 53.81408668 25.75776601 57.27466702 C25.7515321 60.88750108 25.75092864 64.50033584 25.7497406 68.11317444 C25.74662739 74.95905525 25.73841415 81.80492017 25.72839111 88.65079397 C25.71722964 96.44268606 25.71171944 104.23457889 25.70669568 112.02647698 C25.69623153 128.05913549 25.67788618 144.0917721 25.65637207 160.12442017 C36.54637207 160.12442017 47.43637207 160.12442017 58.65637207 160.12442017 C58.32637207 154.84442017 57.99637207 149.56442017 57.65637207 144.12442017 C57.57890257 140.39031342 57.52787445 136.6770961 57.54284668 132.94473267 C57.54270065 131.94753204 57.54255463 130.95033142 57.54240417 129.9229126 C57.54308867 126.69839124 57.55081074 123.47393115 57.55871582 120.24942017 C57.56058522 117.98542309 57.56200665 115.72142561 57.56300354 113.45742798 C57.56678763 107.55242764 57.57658191 101.64745262 57.58770752 95.74246216 C57.59801088 89.69530581 57.60252012 83.6481453 57.60754395 77.60098267 C57.61820863 65.77545082 57.63523453 53.94993761 57.65637207 42.12442017 C57.98637207 42.12442017 58.31637207 42.12442017 58.65637207 42.12442017 C59.15137207 37.17442017 59.15137207 37.17442017 59.65637207 32.12442017 C59.98637207 32.12442017 60.31637207 32.12442017 60.65637207 32.12442017 C60.67970082 48.92665838 60.69735113 65.72889155 60.70818424 82.53114223 C60.71334725 90.33217853 60.72039004 98.13320477 60.73181152 105.93423462 C60.74175822 112.7311833 60.74822546 119.5281247 60.75046057 126.32508045 C60.7517677 129.92620148 60.75485371 133.52730169 60.76210213 137.12841606 C60.77011571 141.14198619 60.77036322 145.15551981 60.76989746 149.1690979 C60.77349274 150.37174789 60.77708801 151.57439789 60.78079224 152.81349182 C60.77941757 153.90029236 60.77804291 154.9870929 60.77662659 156.10682678 C60.77754838 157.05719535 60.77847017 158.00756392 60.7794199 158.98673153 C60.65637207 161.12442017 60.65637207 161.12442017 59.65637207 162.12442017 C57.07447761 162.22533492 54.51990707 162.26413515 51.93762207 162.25723267 C50.77800964 162.25866776 50.77800964 162.25866776 49.5949707 162.26013184 C47.95739664 162.26081357 46.31981988 162.25895973 44.68225098 162.25479126 C42.16705287 162.24944288 39.65203334 162.25473643 37.13684082 162.26113892 C35.54960084 162.26047813 33.96236097 162.25919697 32.37512207 162.25723267 C31.61783813 162.2592569 30.8605542 162.26128113 30.08032227 162.2633667 C24.77132339 162.23937148 24.77132339 162.23937148 23.65637207 161.12442017 C23.560204 159.4415032 23.53449517 157.75452456 23.53611755 156.06886292 C23.53474289 154.97364822 23.53336823 153.87843353 23.5319519 152.75003052 C23.53554718 151.53802979 23.53914246 150.32602905 23.54284668 149.07730103 C23.54270065 147.80919083 23.54255463 146.54108063 23.54240417 145.23454285 C23.54211622 141.74709595 23.54801262 138.25968316 23.55497813 134.77224422 C23.561212 131.13138293 23.56181549 127.49052095 23.56300354 123.84965515 C23.56611676 116.95065045 23.57433002 110.05166151 23.58435303 103.15266377 C23.59551446 95.30031332 23.60102469 87.44796213 23.60604846 79.59560573 C23.61651264 63.43853318 23.63485801 47.28148236 23.65637207 31.12442017 C13.42637207 31.12442017 3.19637207 31.12442017 -7.34362793 31.12442017 C-7.36425293 26.19504517 -7.38487793 21.26567017 -7.40612793 16.18692017 C-7.41523193 14.62981323 -7.42433594 13.0727063 -7.43371582 11.46841431 C-7.43621338 10.2527478 -7.43871094 9.0370813 -7.44128418 7.78457642 C-7.446521 6.53297729 -7.45175781 5.28137817 -7.45715332 3.99185181 C-7.2488517 -1.26944393 -4.62431955 0.00769635 0 0 Z " fill="#DFF5FE" transform="translate(577.3436279296875,531.8755798339844)"/>
<path d="M0 0 C2.01107727 3.01661591 2.4331523 4.49429214 3 7.98046875 C3.16371094 8.97151611 3.32742188 9.96256348 3.49609375 10.98364258 C3.66238281 12.04091553 3.82867188 13.09818848 4 14.1875 C4.17660156 15.27377686 4.35320313 16.36005371 4.53515625 17.47924805 C5.48516409 23.41371832 6.31901037 29.34168019 7 35.3125 C7.79073224 42.22596625 9.16974216 48.93695129 10.76757812 55.70825195 C10.94095703 56.46968506 11.11433594 57.23111816 11.29296875 58.015625 C11.4530542 58.68883789 11.61313965 59.36205078 11.77807617 60.05566406 C12 62 12 62 11 66 C3.74 65.67 -3.52 65.34 -11 65 C-10.67386719 63.41316406 -10.34773438 61.82632813 -10.01171875 60.19140625 C-7.49744477 47.69517559 -5.42074197 35.28331009 -4.03076172 22.61181641 C-3.17044625 14.93087036 -1.89260966 7.50332481 0 0 Z " fill="#1E86D9" transform="translate(518,574)"/>
<path d="M0 0 C3.92182829 0.72033581 6.01818567 1.99174568 9.0625 4.5625 C12.96341223 10.23655416 12.6131929 16.30040133 12.75 22.9375 C12.80124023 24.61392578 12.80124023 24.61392578 12.85351562 26.32421875 C12.93566073 29.07021222 13.00492128 31.81589982 13.0625 34.5625 C9.91668577 34.59138514 6.77090531 34.60925923 3.625 34.625 C2.72716797 34.63337891 1.82933594 34.64175781 0.90429688 34.65039062 C-0.37670898 34.65522461 -0.37670898 34.65522461 -1.68359375 34.66015625 C-2.47435303 34.66539307 -3.2651123 34.67062988 -4.07983398 34.67602539 C-5.9375 34.5625 -5.9375 34.5625 -6.9375 33.5625 C-7.43683177 28.99399969 -7.5948274 24.40176406 -7.8125 19.8125 C-7.89757812 18.5234375 -7.98265625 17.234375 -8.0703125 15.90625 C-8.12703125 14.66359375 -8.18375 13.4209375 -8.2421875 12.140625 C-8.30390137 11.00012695 -8.36561523 9.85962891 -8.42919922 8.68457031 C-7.6515552 3.74687828 -4.9018745 0.93865682 0 0 Z " fill="#ECEFEC" transform="translate(489.9375,477.4375)"/>
<path d="M0 0 C0.69971924 0.03907471 1.39943848 0.07814941 2.12036133 0.1184082 C7.06527369 0.44027369 7.06527369 0.44027369 8.1875 1.5625 C8.28141296 3.46493762 8.30493658 5.37088459 8.30102539 7.27563477 C8.30094986 8.4968251 8.30087433 9.71801544 8.30079651 10.97621155 C8.29568911 12.31877686 8.29047311 13.66134175 8.28515625 15.00390625 C8.28329199 16.37011158 8.28186813 17.73631757 8.28086853 19.1025238 C8.27704394 22.70451695 8.26721417 26.30647 8.25616455 29.90844727 C8.24594916 33.58153745 8.24137064 37.25463409 8.23632812 40.92773438 C8.22559184 48.13934123 8.20851614 55.350915 8.1875 62.5625 C8.8475 62.2325 9.5075 61.9025 10.1875 61.5625 C12.36574961 61.47690882 14.54665255 61.45536588 16.7265625 61.46484375 C18.02851563 61.46806641 19.33046875 61.47128906 20.671875 61.47460938 C22.05208399 61.48296534 23.43229232 61.49143029 24.8125 61.5 C26.20051926 61.50501499 27.58854022 61.5095779 28.9765625 61.51367188 C32.38025132 61.52549024 35.78385439 61.54196566 39.1875 61.5625 C39.1875 61.8925 39.1875 62.2225 39.1875 62.5625 C30.2775 62.5625 21.3675 62.5625 12.1875 62.5625 C12.1875 63.2225 12.1875 63.8825 12.1875 64.5625 C10.5375 64.5625 8.8875 64.5625 7.1875 64.5625 C5.86539941 61.91829883 6.02627878 59.88050385 5.98217773 56.91943359 C5.9522599 55.14782364 5.9522599 55.14782364 5.92173767 53.34042358 C5.90502518 52.06019318 5.88831268 50.77996277 5.87109375 49.4609375 C5.85031265 48.15420074 5.82953156 46.84746399 5.80812073 45.50112915 C5.75290706 42.025811 5.70349475 38.55043347 5.65527344 35.07501221 C5.60505323 31.529121 5.54936988 27.9833161 5.49414062 24.4375 C5.3865677 17.47923988 5.28562561 10.52089969 5.1875 3.5625 C-0.7525 3.2325 -6.6925 2.9025 -12.8125 2.5625 C-12.8125 2.2325 -12.8125 1.9025 -12.8125 1.5625 C-15.7825 1.2325 -18.7525 0.9025 -21.8125 0.5625 C-21.8125 1.2225 -21.8125 1.8825 -21.8125 2.5625 C-22.8025 2.5625 -23.7925 2.5625 -24.8125 2.5625 C-24.8125 53.7125 -24.8125 104.8625 -24.8125 157.5625 C-14.76680956 158.40563546 -14.76680956 158.40563546 -4.8125 158.5625 C-7.22079792 160.97079792 -7.80533556 160.81852579 -11.09375 160.828125 C-11.93550781 160.83070313 -12.77726562 160.83328125 -13.64453125 160.8359375 C-14.52496094 160.82820312 -15.40539062 160.82046875 -16.3125 160.8125 C-17.19292969 160.82023438 -18.07335937 160.82796875 -18.98046875 160.8359375 C-19.82222656 160.83335937 -20.66398437 160.83078125 -21.53125 160.828125 C-22.30404297 160.82586914 -23.07683594 160.82361328 -23.87304688 160.82128906 C-25.8125 160.5625 -25.8125 160.5625 -27.8125 158.5625 C-28.05859566 155.86447716 -28.05859566 155.86447716 -28.05300903 152.36166382 C-28.05471788 151.71883725 -28.05642673 151.07601068 -28.05818737 150.41370451 C-28.06149328 148.2501378 -28.05046078 146.0868782 -28.03955078 143.92333984 C-28.0389869 142.37626655 -28.03930277 140.82919273 -28.04043579 139.28211975 C-28.04101122 135.07364815 -28.02922621 130.86528982 -28.01528788 126.65684462 C-28.00281215 122.26192767 -28.00161252 117.86700833 -27.99923706 113.47207642 C-27.99301298 105.14582398 -27.97658965 96.81962386 -27.95653808 88.49339449 C-27.9342079 79.01590579 -27.92319291 69.53841462 -27.91314721 60.06090617 C-27.8922242 40.56140775 -27.85703024 21.06195808 -27.8125 1.5625 C-19.18891871 -2.11173722 -9.21624353 -0.52892862 0 0 Z " fill="#FEEEE9" transform="translate(384.8125,258.4375)"/>
<path d="M0 0 C0 52.8 0 105.6 0 160 C-2.64 160 -5.28 160 -8 160 C-7.67 159.34 -7.34 158.68 -7 158 C-5.68 158 -4.36 158 -3 158 C-2.67 106.52 -2.34 55.04 -2 2 C-12.89 2 -23.78 2 -35 2 C-35 22.13 -35 42.26 -35 63 C-43.91 63 -52.82 63 -62 63 C-62 62.67 -62 62.34 -62 62 C-53.42 62 -44.84 62 -36 62 C-36 41.87 -36 21.74 -36 1 C-24.61140922 -2.79619693 -12.00462874 0 0 0 Z " fill="#FECBC6" transform="translate(447,533)"/>
<path d="M0 0 C1.134375 0.144375 2.26875 0.28875 3.4375 0.4375 C5.93696559 4.18669839 5.74347184 7.15711205 5.73828125 11.5 C5.74256638 12.28769775 5.7468515 13.07539551 5.75126648 13.88696289 C5.75700579 15.55125976 5.75751297 17.21558171 5.75317383 18.87988281 C5.75001158 21.42816834 5.77348449 23.97529533 5.79882812 26.5234375 C5.80110092 28.14062353 5.80180471 29.75781269 5.80078125 31.375 C5.809991 32.13756104 5.81920074 32.90012207 5.82868958 33.68579102 C5.78276831 38.92638422 5.78276831 38.92638422 4.10229492 41.4140625 C1.44086891 43.05018185 -0.52503077 42.88046426 -3.5625 42.4375 C-6.18232558 40.00002351 -6.55392649 38.51506061 -6.95068359 34.92578125 C-6.97040134 33.53398964 -6.97283375 32.14188044 -6.9609375 30.75 C-6.96380768 30.01048096 -6.96667786 29.27096191 -6.96963501 28.5090332 C-6.97167203 26.94904818 -6.96616745 25.3890374 -6.95361328 23.82910156 C-6.9375531 21.44538092 -6.95347279 19.0633556 -6.97265625 16.6796875 C-6.97067375 15.1614546 -6.96682994 13.64322276 -6.9609375 12.125 C-6.96701019 11.41448486 -6.97308289 10.70396973 -6.9793396 9.97192383 C-6.93585833 6.9027665 -6.70998225 4.71532184 -5.26025391 1.984375 C-3.5625 0.4375 -3.5625 0.4375 0 0 Z " fill="#DB2C20" transform="translate(420.5625,455.5625)"/>
<path d="M0 0 C12.62995803 -0.02254916 25.2599028 -0.040914 37.88987637 -0.05181217 C43.75382164 -0.05704146 49.61775249 -0.06413994 55.48168945 -0.07543945 C61.13561712 -0.0862667 66.78953087 -0.09227649 72.44346809 -0.09487724 C74.6057361 -0.09673179 76.76800331 -0.10035295 78.93026543 -0.10573006 C81.94758657 -0.11293833 84.96484943 -0.11399103 87.98217773 -0.11352539 C88.8856041 -0.11712067 89.78903046 -0.12071594 90.71983337 -0.12442017 C96.88594784 -0.11405216 96.88594784 -0.11405216 98 1 C98.08790975 3.29151417 98.10694038 5.58572524 98.09765625 7.87890625 C98.09515869 9.13517822 98.09266113 10.3914502 98.09008789 11.68579102 C98.08098389 13.29510498 98.07187988 14.90441895 98.0625 16.5625 C98.041875 21.656875 98.02125 26.75125 98 32 C87.77 32 77.54 32 67 32 C67 67.64 67 103.28 67 140 C66.67 140 66.34 140 66 140 C66 103.7 66 67.4 66 30 C76.23 30 86.46 30 97 30 C96.67 21.09 96.34 12.18 96 3 C64.65 3 33.3 3 1 3 C1 11.91 1 20.82 1 30 C2.98 29.34 4.96 28.68 7 28 C7.33 28.33 7.66 28.66 8 29 C9.70563778 29.15740605 11.41727244 29.25093392 13.12890625 29.31640625 C14.16337891 29.35830078 15.19785156 29.40019531 16.26367188 29.44335938 C17.35228516 29.48267578 18.44089844 29.52199219 19.5625 29.5625 C20.65498047 29.60568359 21.74746094 29.64886719 22.87304688 29.69335938 C25.58189564 29.79982068 28.29083992 29.90183516 31 30 C31 30.33 31 30.66 31 31 C20.77 31 10.54 31 0 31 C0 20.77 0 10.54 0 0 Z " fill="#FAD3CF" transform="translate(228,532)"/>
<path d="M0 0 C32.01 0 64.02 0 97 0 C99.02492589 4.04985178 99.24741128 5.66415459 99.23046875 10.04296875 C99.22853516 11.19861328 99.22660156 12.35425781 99.22460938 13.54492188 C99.21236328 14.74697266 99.20011719 15.94902344 99.1875 17.1875 C99.1865332 19.00797852 99.1865332 19.00797852 99.18554688 20.86523438 C99.14024712 29.85975288 99.14024712 29.85975288 98 31 C87.77 31 77.54 31 67 31 C67 73.9 67 116.8 67 161 C66.67 161 66.34 161 66 161 C66 117.77 66 74.54 66 30 C68.81824192 28.59087904 71.17251282 28.88816447 74.3203125 28.90234375 C75.57714844 28.90556641 76.83398438 28.90878906 78.12890625 28.91210938 C79.44761719 28.92048828 80.76632812 28.92886719 82.125 28.9375 C83.46484211 28.94251511 84.804686 28.94707799 86.14453125 28.95117188 C89.42973206 28.96298914 92.71484397 28.97946383 96 29 C96 28.05125 96 27.1025 96 26.125 C96 18.08333333 96 10.04166667 96 2 C94.9953772 2.00785522 94.9953772 2.00785522 93.97045898 2.01586914 C72.4551337 2.1553841 50.94921677 1.85485222 29.4375 1.5 C28.34985918 1.48206327 28.34985918 1.48206327 27.24024582 1.46376419 C18.16008741 1.313608 9.0800102 1.15887831 0 1 C0 0.67 0 0.34 0 0 Z " fill="#FEE8DF" transform="translate(241,258)"/>
<path d="M0 0 C3.63 0 7.26 0 11 0 C11 53.46 11 106.92 11 162 C7.37 162 3.74 162 0 162 C0 161.34 0 160.68 0 160 C2.97 160 5.94 160 9 160 C9 107.53 9 55.06 9 1 C6.03 1 3.06 1 0 1 C0 0.67 0 0.34 0 0 Z " fill="#CAE7FD" transform="translate(450,258)"/>
<path d="M0 0 C0.33 0 0.66 0 1 0 C1.02332875 16.80223821 1.04097906 33.60447139 1.05181217 50.40672207 C1.05697518 58.20775836 1.06401797 66.00878461 1.07543945 73.80981445 C1.08538615 80.60676313 1.09185339 87.40370454 1.09408849 94.20066029 C1.09539563 97.80178131 1.09848164 101.40288152 1.10573006 105.0039959 C1.11374364 109.01756602 1.11399115 113.03109964 1.11352539 117.04467773 C1.11712067 118.24732773 1.12071594 119.44997772 1.12442017 120.68907166 C1.1230455 121.77587219 1.12167084 122.86267273 1.12025452 123.98240662 C1.12117631 124.93277518 1.1220981 125.88314375 1.12304783 126.86231136 C1 129 1 129 0 130 C-2.59359322 130.08851529 -5.16039691 130.11525945 -7.75390625 130.09765625 C-8.52935287 130.0962413 -9.3047995 130.09482635 -10.10374451 130.09336853 C-12.59003494 130.08775345 -15.0762366 130.07519846 -17.5625 130.0625 C-19.24413933 130.05748694 -20.92578006 130.0529237 -22.60742188 130.04882812 C-26.73831566 130.03777913 -30.86914276 130.02050445 -35 130 C-35 129.67 -35 129.34 -35 129 C-24.11 128.67 -13.22 128.34 -2 128 C-2 89.06 -2 50.12 -2 10 C-1.67 10 -1.34 10 -1 10 C-0.67 6.7 -0.34 3.4 0 0 Z " fill="#C0DBE9" transform="translate(637,564)"/>
<path d="M0 0 C7.26 0 14.52 0 22 0 C22.33 42.57 22.66 85.14 23 129 C38.84 129.495 38.84 129.495 55 130 C55 130.33 55 130.66 55 131 C43.45 131 31.9 131 20 131 C20 88.1 20 45.2 20 1 C13.4 1 6.8 1 0 1 C0 0.67 0 0.34 0 0 Z " fill="#FEC8C5" transform="translate(251,288)"/>
<path d="M0 0 C1.08946678 -0.0049926 1.08946678 -0.0049926 2.20094299 -0.01008606 C3.74015671 -0.015158 5.27938145 -0.0174943 6.81860352 -0.01733398 C9.17808096 -0.01951891 11.53708986 -0.0376669 13.89648438 -0.05664062 C15.38932131 -0.05957477 16.88216048 -0.06155942 18.375 -0.0625 C19.43756264 -0.07327827 19.43756264 -0.07327827 20.52159119 -0.08427429 C25.52508288 -0.06085462 25.52508288 -0.06085462 27.75390625 2.16796875 C11.41890625 2.66296875 11.41890625 2.66296875 -5.24609375 3.16796875 C-5.90609375 54.64796875 -6.56609375 106.12796875 -7.24609375 159.16796875 C-7.57609375 159.16796875 -7.90609375 159.16796875 -8.24609375 159.16796875 C-8.26942096 138.58460037 -8.28707205 118.00123416 -8.29790592 97.41785526 C-8.30306926 87.86132936 -8.31011267 78.30481166 -8.3215332 68.74829102 C-8.33147889 60.42194868 -8.3379469 52.09561227 -8.34018224 43.76926416 C-8.34148955 39.35772018 -8.34457663 34.94619318 -8.35182381 30.53465462 C-8.35858221 26.38726488 -8.36071108 22.23989922 -8.35920143 18.0925045 C-8.35947784 16.56583145 -8.36148403 15.03915763 -8.36529922 13.51248932 C-8.37023369 11.43713416 -8.36909298 9.36187133 -8.36634827 7.28651428 C-8.36727006 6.12228974 -8.36819185 4.9580652 -8.36914158 3.75856113 C-8.12292223 -1.42522782 -4.19240325 0.0065673 0 0 Z " fill="#FEB8B5" transform="translate(351.24609375,532.83203125)"/>
<path d="M0 0 C1.36916565 0.00539291 1.36916565 0.00539291 2.76599121 0.01089478 C3.72198715 0.01074875 4.67798309 0.01060272 5.66294861 0.01045227 C8.83916452 0.01115181 12.01532259 0.01894614 15.19152832 0.02676392 C17.387283 0.02862795 19.58303809 0.03005192 21.77879333 0.03105164 C27.5705784 0.03487798 33.36233857 0.04470926 39.15411377 0.05575562 C45.05915998 0.06596724 50.9642102 0.07054872 56.8692627 0.07559204 C68.46497855 0.08633142 80.06066935 0.10392916 91.65637207 0.12442017 C91.65637207 10.35442017 91.65637207 20.58442017 91.65637207 31.12442017 C89.34637207 31.12442017 87.03637207 31.12442017 84.65637207 31.12442017 C84.65637207 30.79442017 84.65637207 30.46442017 84.65637207 30.12442017 C86.63637207 30.12442017 88.61637207 30.12442017 90.65637207 30.12442017 C90.65637207 20.88442017 90.65637207 11.64442017 90.65637207 2.12442017 C58.97637207 2.45442017 27.29637207 2.78442017 -5.34362793 3.12442017 C-5.67362793 12.36442017 -6.00362793 21.60442017 -6.34362793 31.12442017 C-6.67362793 31.12442017 -7.00362793 31.12442017 -7.34362793 31.12442017 C-7.36828415 26.87027394 -7.38646691 22.61616519 -7.39855957 18.36196899 C-7.40359894 16.91371944 -7.41043046 15.465475 -7.41906738 14.01724243 C-7.4311504 11.93967429 -7.43686004 9.86217319 -7.44128418 7.78457642 C-7.446521 6.53297729 -7.45175781 5.28137817 -7.45715332 3.99185181 C-7.2488517 -1.26944393 -4.62431955 0.00769635 0 0 Z " fill="#CEE8F4" transform="translate(577.3436279296875,531.8755798339844)"/>
<path d="M0 0 C10.23 0.33 20.46 0.66 31 1 C31 20.8 31 40.6 31 61 C30.67 61 30.34 61 30 61 C30 41.53 30 22.06 30 2 C17.37992745 2.18502756 17.37992745 2.18502756 5 4 C2.71834526 7.42248212 2.73270131 8.72718062 2.68115234 12.7565918 C2.66128265 13.93758957 2.64141296 15.11858734 2.62094116 16.33537292 C2.60938995 17.61044205 2.59783875 18.88551117 2.5859375 20.19921875 C2.56657135 21.50454056 2.5472052 22.80986237 2.5272522 24.15473938 C2.47592366 27.62180522 2.43630207 31.08890989 2.39910889 34.55615234 C2.35907359 38.09547536 2.30797913 41.63463677 2.2578125 45.17382812 C2.16104487 52.11576733 2.07664284 59.05781025 2 66 C1.01 66.495 1.01 66.495 0 67 C0 44.89 0 22.78 0 0 Z " fill="#BD2D25" transform="translate(393,353)"/>
<path d="M0 0 C1.04945801 0.05873291 1.04945801 0.05873291 2.12011719 0.11865234 C7.06485082 0.43985082 7.06485082 0.43985082 8.1875 1.5625 C8.28141296 3.46493762 8.30493658 5.37088459 8.30102539 7.27563477 C8.30094986 8.4968251 8.30087433 9.71801544 8.30079651 10.97621155 C8.29568911 12.31877686 8.29047311 13.66134175 8.28515625 15.00390625 C8.28329199 16.37011158 8.28186813 17.73631757 8.28086853 19.1025238 C8.27704394 22.70451695 8.26721417 26.30647 8.25616455 29.90844727 C8.24594916 33.58153745 8.24137064 37.25463409 8.23632812 40.92773438 C8.22559184 48.13934123 8.20851614 55.350915 8.1875 62.5625 C8.8475 62.2325 9.5075 61.9025 10.1875 61.5625 C12.36574961 61.47690882 14.54665255 61.45536588 16.7265625 61.46484375 C18.02851563 61.46806641 19.33046875 61.47128906 20.671875 61.47460938 C22.05208399 61.48296534 23.43229232 61.49143029 24.8125 61.5 C26.20051926 61.50501499 27.58854022 61.5095779 28.9765625 61.51367188 C32.38025132 61.52549024 35.78385439 61.54196566 39.1875 61.5625 C39.1875 61.8925 39.1875 62.2225 39.1875 62.5625 C30.2775 62.5625 21.3675 62.5625 12.1875 62.5625 C12.1875 63.2225 12.1875 63.8825 12.1875 64.5625 C10.5375 64.5625 8.8875 64.5625 7.1875 64.5625 C5.86539941 61.91829883 6.02627878 59.88050385 5.98217773 56.91943359 C5.9522599 55.14782364 5.9522599 55.14782364 5.92173767 53.34042358 C5.90502518 52.06019318 5.88831268 50.77996277 5.87109375 49.4609375 C5.85031265 48.15420074 5.82953156 46.84746399 5.80812073 45.50112915 C5.75290706 42.025811 5.70349475 38.55043347 5.65527344 35.07501221 C5.60505323 31.529121 5.54936988 27.9833161 5.49414062 24.4375 C5.3865677 17.47923988 5.28562561 10.52089969 5.1875 3.5625 C-0.7525 3.2325 -6.6925 2.9025 -12.8125 2.5625 C-12.8125 2.2325 -12.8125 1.9025 -12.8125 1.5625 C-15.7825 1.2325 -18.7525 0.9025 -21.8125 0.5625 C-21.8125 1.2225 -21.8125 1.8825 -21.8125 2.5625 C-22.8025 2.5625 -23.7925 2.5625 -24.8125 2.5625 C-25.1425 3.5525 -25.4725 4.5425 -25.8125 5.5625 C-26.4725 5.2325 -27.1325 4.9025 -27.8125 4.5625 C-27.4825 3.2425 -27.1525 1.9225 -26.8125 0.5625 C-18.50489939 -1.97817397 -8.60652269 -0.50318045 0 0 Z " fill="#F9D2CB" transform="translate(384.8125,258.4375)"/>
<path d="M0 0 C7.59 0.33 15.18 0.66 23 1 C23 1.33 23 1.66 23 2 C15.74 2 8.48 2 1 2 C1 25.43 1 48.86 1 73 C0.67 73 0.34 73 0 73 C-0.33 70.36 -0.66 67.72 -1 65 C-1.99 65.495 -1.99 65.495 -3 66 C-3 45.21 -3 24.42 -3 3 C-2.34 3 -1.68 3 -1 3 C-0.67 2.01 -0.34 1.02 0 0 Z " fill="#117BCD" transform="translate(455,439)"/>
<path d="M0 0 C0.99 0.33 1.98 0.66 3 1 C3 20.47 3 39.94 3 60 C12.24 60 21.48 60 31 60 C31 40.2 31 20.4 31 0 C31.33 0 31.66 0 32 0 C32 20.13 32 40.26 32 61 C16.655 61.495 16.655 61.495 1 62 C0.67 41.54 0.34 21.08 0 0 Z " fill="#BA2C22" transform="translate(392,259)"/>
<path d="M0 0 C0.33 0 0.66 0 1 0 C1 32.67 1 65.34 1 99 C0.67 99 0.34 99 0 99 C-0.02505615 98.40985107 -0.0501123 97.81970215 -0.07592773 97.21166992 C-0.19200052 94.53673186 -0.31467572 91.8621362 -0.4375 89.1875 C-0.47681641 88.25873047 -0.51613281 87.32996094 -0.55664062 86.37304688 C-0.61948242 85.0340332 -0.61948242 85.0340332 -0.68359375 83.66796875 C-0.73858032 82.43469849 -0.73858032 82.43469849 -0.79467773 81.17651367 C-0.93427772 78.82094822 -0.93427772 78.82094822 -2 76 C-2.08544291 74.66471193 -2.11774625 73.32556112 -2.11352539 71.98754883 C-2.11344986 71.18694534 -2.11337433 70.38634186 -2.11329651 69.56147766 C-2.10813522 68.70201035 -2.10297394 67.84254303 -2.09765625 66.95703125 C-2.0962413 66.0734343 -2.09482635 65.18983734 -2.09336853 64.27946472 C-2.08777069 61.45710872 -2.07521861 58.63483203 -2.0625 55.8125 C-2.05748472 53.89908969 -2.05292186 51.98567813 -2.04882812 50.07226562 C-2.03780197 45.38147986 -2.02053883 40.69075337 -2 36 C-1.67 36 -1.34 36 -1 36 C-0.67 24.12 -0.34 12.24 0 0 Z " fill="#E92A1F" transform="translate(448,421)"/>
<path d="M0 0 C32.01 0 64.02 0 97 0 C99.03627575 4.07255149 99.23848858 5.67416475 99.1953125 10.078125 C99.18886719 11.23828125 99.18242187 12.3984375 99.17578125 13.59375 C99.15064453 15.40359375 99.15064453 15.40359375 99.125 17.25 C99.11597656 18.47203125 99.10695313 19.6940625 99.09765625 20.953125 C99.07409513 23.96894782 99.04119706 26.98437492 99 30 C98.67 30 98.34 30 98 30 C97.505 25.545 97.505 25.545 97 21 C96.67 21 96.34 21 96 21 C96 14.73 96 8.46 96 2 C94.34871094 2.01160156 92.69742188 2.02320313 90.99609375 2.03515625 C70.47238727 2.1258625 49.95775537 1.8384973 29.4375 1.5 C28.34985918 1.48206327 28.34985918 1.48206327 27.24024582 1.46376419 C18.16008741 1.313608 9.0800102 1.15887831 0 1 C0 0.67 0 0.34 0 0 Z " fill="#FEC7C3" transform="translate(241,258)"/>
<path d="M0 0 C0.28875 0.61875 0.5775 1.2375 0.875 1.875 C1.8567251 4.12315032 1.8567251 4.12315032 3.9609375 5.359375 C7.63031275 8.31174589 8.20634986 12.50852807 9 17 C9.22505272 21.34782705 9.18403006 25.65143781 9 30 C7.02 30.99 7.02 30.99 5 32 C5.33 31.175 5.66 30.35 6 29.5 C8.10659659 22.12691195 7.13201618 15.89043559 4 9 C0.54062082 3.94398428 -2.47114696 4.17628435 -9 2 C-18.57 1.67 -28.14 1.34 -38 1 C-38 24.1 -38 47.2 -38 71 C-38.33 71 -38.66 71 -39 71 C-39 47.57 -39 24.14 -39 0 C-32.93625 -0.185625 -26.8725 -0.37125 -20.625 -0.5625 C-18.71154785 -0.62381104 -16.7980957 -0.68512207 -14.82666016 -0.74829102 C-13.3141397 -0.7922477 -11.8016078 -0.83581307 -10.2890625 -0.87890625 C-9.10606567 -0.9189679 -9.10606567 -0.9189679 -7.89916992 -0.95983887 C-2.2281436 -1.1140718 -2.2281436 -1.1140718 0 0 Z " fill="#3680BA" transform="translate(495,441)"/>
<path d="M0 0 C0.33 0 0.66 0 1 0 C1 4.29 1 8.58 1 13 C2.98 13 4.96 13 7 13 C8.875 14 8.875 14 10 16 C10.39274738 19.09288558 10.63577985 21.04689172 10 24 C7.8125 26.5 7.8125 26.5 5 28 C3.35 28 1.7 28 0 28 C0 18.76 0 9.52 0 0 Z " fill="#4484BB" transform="translate(475,443)"/>
<path d="M0 0 C1.77074917 -0.02705729 3.54161711 -0.04642195 5.3125 -0.0625 C6.29863281 -0.07410156 7.28476562 -0.08570313 8.30078125 -0.09765625 C11 0 11 0 14 1 C15.40664926 1.14492123 16.8181133 1.24628931 18.23046875 1.31640625 C19.43413086 1.37924805 19.43413086 1.37924805 20.66210938 1.44335938 C21.49548828 1.48267578 22.32886719 1.52199219 23.1875 1.5625 C24.03248047 1.60568359 24.87746094 1.64886719 25.74804688 1.69335938 C27.83184433 1.79931518 29.91590103 1.9001502 32 2 C32 2.33 32 2.66 32 3 C28.52085157 3.0294191 25.04173583 3.04693792 21.5625 3.0625 C20.10166992 3.07506836 20.10166992 3.07506836 18.61132812 3.08789062 C17.1659668 3.09272461 17.1659668 3.09272461 15.69140625 3.09765625 C14.37958374 3.10551147 14.37958374 3.10551147 13.04125977 3.11352539 C9.01318609 2.96316381 5.00622516 2.44513613 1 2 C1 23.78 1 45.56 1 68 C0.34 68 -0.32 68 -1 68 C-1.02314216 59.42921353 -1.04092467 50.85844005 -1.05181217 42.28763008 C-1.05703689 38.30811588 -1.0641271 34.32862301 -1.07543945 30.34912109 C-1.08628291 26.51066757 -1.09227994 22.6722346 -1.09487724 18.83376694 C-1.09672885 17.36730501 -1.10034444 15.90084423 -1.10573006 14.43439102 C-1.11295983 12.38478388 -1.11399012 10.33526232 -1.11352539 8.28564453 C-1.115746 7.11760284 -1.11796661 5.94956116 -1.12025452 4.74612427 C-1 2 -1 2 0 0 Z " fill="#FEDFDB" transform="translate(392,351)"/>
<path d="M0 0 C0.33 0 0.66 0 1 0 C1.66 20.13 2.32 40.26 3 61 C13.04569044 61.84313546 13.04569044 61.84313546 23 62 C20.59170208 64.40829792 20.00716444 64.25602579 16.71875 64.265625 C15.87699219 64.26820313 15.03523438 64.27078125 14.16796875 64.2734375 C13.28753906 64.26570313 12.40710938 64.25796875 11.5 64.25 C10.61957031 64.25773437 9.73914063 64.26546875 8.83203125 64.2734375 C7.99027344 64.27085937 7.14851563 64.26828125 6.28125 64.265625 C5.50845703 64.26336914 4.73566406 64.26111328 3.93945312 64.25878906 C2 64 2 64 0 62 C-0.24050903 59.4057312 -0.24050903 59.4057312 -0.22705078 56.08154297 C-0.22689972 54.84040741 -0.22674866 53.59927185 -0.22659302 52.32052612 C-0.216379 50.9610783 -0.205947 49.6016321 -0.1953125 48.2421875 C-0.19158284 46.85499271 -0.18873565 45.46779529 -0.18673706 44.08059692 C-0.17909684 40.42759949 -0.15944516 36.77476083 -0.1373291 33.12182617 C-0.11687896 29.39504138 -0.10773713 25.66823096 -0.09765625 21.94140625 C-0.07619951 14.62753175 -0.04205903 7.31378811 0 0 Z " fill="#FEDDD8" transform="translate(357,355)"/>
<path d="M0 0 C1.04945801 0.05873291 1.04945801 0.05873291 2.12011719 0.11865234 C7.06485082 0.43985082 7.06485082 0.43985082 8.1875 1.5625 C8.27435603 3.12422745 8.29452219 4.68979344 8.28515625 6.25390625 C8.28193359 7.19814453 8.27871094 8.14238281 8.27539062 9.11523438 C8.26282227 10.60506836 8.26282227 10.60506836 8.25 12.125 C8.24548828 13.12208984 8.24097656 14.11917969 8.23632812 15.14648438 C8.22450007 17.61854849 8.20801849 20.09049518 8.1875 22.5625 C7.5275 22.2325 6.8675 21.9025 6.1875 21.5625 C5.6925 12.6525 5.6925 12.6525 5.1875 3.5625 C-0.7525 3.2325 -6.6925 2.9025 -12.8125 2.5625 C-12.8125 2.2325 -12.8125 1.9025 -12.8125 1.5625 C-15.7825 1.2325 -18.7525 0.9025 -21.8125 0.5625 C-21.8125 1.2225 -21.8125 1.8825 -21.8125 2.5625 C-22.8025 2.5625 -23.7925 2.5625 -24.8125 2.5625 C-25.1425 3.5525 -25.4725 4.5425 -25.8125 5.5625 C-26.4725 5.2325 -27.1325 4.9025 -27.8125 4.5625 C-27.4825 3.2425 -27.1525 1.9225 -26.8125 0.5625 C-18.50489939 -1.97817397 -8.60652269 -0.50318045 0 0 Z " fill="#FDE2DB" transform="translate(384.8125,258.4375)"/>
<path d="M0 0 C0.66 1.32 1.32 2.64 2 4 C1.67 4.33 1.34 4.66 1 5 C0.66905758 6.40800959 0.38656244 7.82746741 0.125 9.25 C-1.07841358 15.54057099 -2.53435946 21.76614225 -4 28 C-1.54066009 27.88630789 0.9167909 27.75957349 3.375 27.625 C4.42300781 27.57859375 4.42300781 27.57859375 5.4921875 27.53125 C9.70185827 27.40500502 9.70185827 27.40500502 13 25 C13.39764263 23.01178687 13.73775349 21.01055661 14 19 C16 22 16 22 17 31 C5.615 30.505 5.615 30.505 -6 30 C-5.18885819 25.74973664 -4.37614538 21.49978414 -3.5625 17.25 C-3.33240234 16.0434375 -3.10230469 14.836875 -2.86523438 13.59375 C-2.64287109 12.43359375 -2.42050781 11.2734375 -2.19140625 10.078125 C-1.98717041 9.00981445 -1.78293457 7.94150391 -1.57250977 6.84082031 C-1.10848636 4.53831441 -0.59649246 2.27098334 0 0 Z " fill="#2476BB" transform="translate(513,609)"/>
<path d="M0 0 C1.32 0.33 2.64 0.66 4 1 C3.90655552 5.52104123 3.8004837 10.04154113 3.68261719 14.56201172 C3.64429699 16.10034021 3.60944944 17.63875925 3.578125 19.17724609 C3.53253941 21.38672276 3.4745366 23.59557448 3.4140625 25.8046875 C3.40251129 26.49432587 3.39096008 27.18396423 3.37905884 27.89450073 C3.22774341 32.77225659 3.22774341 32.77225659 1 35 C0 34 0 34 -0.11352539 30.76538086 C-0.11336631 29.33185874 -0.10767407 27.89833088 -0.09765625 26.46484375 C-0.0962413 25.71159317 -0.09482635 24.95834259 -0.09336853 24.18226624 C-0.08775376 21.7673044 -0.07519883 19.35243399 -0.0625 16.9375 C-0.0574869 15.30403779 -0.05292366 13.67057414 -0.04882812 12.03710938 C-0.03777954 8.02470415 -0.02050506 4.01236759 0 0 Z " fill="#D72219" transform="translate(414,460)"/>
<path d="M0 0 C0.83213013 0.04580704 1.66426025 0.09161407 2.52160645 0.1388092 C5.15025157 0.2850425 7.77819687 0.44117859 10.40625 0.59765625 C12.2004837 0.69922582 13.99475442 0.80014356 15.7890625 0.90039062 C20.16192234 1.14611515 24.53418337 1.40071563 28.90625 1.66015625 C28.90625 1.99015625 28.90625 2.32015625 28.90625 2.66015625 C14.05625 2.66015625 -0.79375 2.66015625 -16.09375 2.66015625 C-16.42375 4.97015625 -16.75375 7.28015625 -17.09375 9.66015625 C-19.09375 6.66015625 -19.09375 6.66015625 -19.09375 2.66015625 C-18.43375 2.66015625 -17.77375 2.66015625 -17.09375 2.66015625 C-17.09375 2.00015625 -17.09375 1.34015625 -17.09375 0.66015625 C-11.26780825 -0.2247602 -5.87195747 -0.36357236 0 0 Z " fill="#2476BF" transform="translate(512.09375,530.33984375)"/>
<path d="M0 0 C0.66 0 1.32 0 2 0 C2.33 13.86 2.66 27.72 3 42 C1.68 41.67 0.36 41.34 -1 41 C-1 45.62 -1 50.24 -1 55 C1.64 55 4.28 55 7 55 C7 55.33 7 55.66 7 56 C2.05 56 -2.9 56 -8 56 C-8 55.67 -8 55.34 -8 55 C-6.02 55 -4.04 55 -2 55 C-2 50.71 -2 46.42 -2 42 C-3.32 41.67 -4.64 41.34 -6 41 C-5.195625 40.690625 -4.39125 40.38125 -3.5625 40.0625 C-1.10919595 39.23664655 -1.10919595 39.23664655 0 38 C0.08861992 35.1883662 0.11522355 32.40141745 0.09765625 29.58984375 C0.0962413 28.74780899 0.09482635 27.90577423 0.09336853 27.03822327 C0.08775263 24.33794665 0.07519748 21.63775172 0.0625 18.9375 C0.05748705 17.11132932 0.05292379 15.28515734 0.04882812 13.45898438 C0.03777804 8.97262458 0.02050279 4.48632616 0 0 Z " fill="#F0B8B4" transform="translate(425,457)"/>
<path d="M0 0 C2.46193217 3.69289825 2.93933598 7.20726127 3.625 11.5 C3.75688721 12.30356934 3.88877441 13.10713867 4.0246582 13.93505859 C4.96418382 19.98519058 5.36423269 25.87549469 5 32 C4.67 32 4.34 32 4 32 C3.79503906 30.71222656 3.59007812 29.42445313 3.37890625 28.09765625 C3.10698348 26.41923637 2.83483649 24.7408528 2.5625 23.0625 C2.42779297 22.21236328 2.29308594 21.36222656 2.15429688 20.48632812 C2.02216797 19.67744141 1.89003906 18.86855469 1.75390625 18.03515625 C1.63345947 17.2862915 1.5130127 16.53742676 1.38891602 15.76586914 C1.16240096 13.9829115 1.16240096 13.9829115 0 13 C-0.66 16.96 -1.32 20.92 -2 25 C-2.33 25 -2.66 25 -3 25 C-3.48032656 16.28296246 -2.07313419 8.45295786 0 0 Z " fill="#2472B4" transform="translate(518,574)"/>
<path d="M0 0 C11.55 0 23.1 0 35 0 C36.07917226 3.23751678 36.11425601 5.57751771 36.09765625 8.98046875 C36.09443359 10.14384766 36.09121094 11.30722656 36.08789062 12.50585938 C36.07532227 14.32827148 36.07532227 14.32827148 36.0625 16.1875 C36.05798828 17.41404297 36.05347656 18.64058594 36.04882812 19.90429688 C36.03703065 22.93624668 36.02056921 25.96809906 36 29 C35.67 29 35.34 29 35 29 C34.505 24.545 34.505 24.545 34 20 C33.67 20 33.34 20 33 20 C33 13.73 33 7.46 33 1 C22.11 1 11.22 1 0 1 C0 0.67 0 0.34 0 0 Z " fill="#F4CDC8" transform="translate(304,259)"/>
<path d="M0 0 C1.33402882 0.11734513 2.6672014 0.24442176 4 0.375 C5.11375 0.47941406 5.11375 0.47941406 6.25 0.5859375 C9 1 9 1 12.65234375 2.0234375 C17.61880554 3.30145969 22.4595701 3.29370818 27.5625 3.25 C28.46935547 3.25773437 29.37621094 3.26546875 30.31054688 3.2734375 C34.38976294 3.26160511 38.0537963 3.14170287 41.96484375 1.921875 C45 1 45 1 48 2 C34.75751015 8.56264984 17.32898413 6.99819109 3.4375 2.375 C2.303125 1.92125 1.16875 1.4675 0 1 C0 0.67 0 0.34 0 0 Z " fill="#CFEBFA" transform="translate(569,417)"/>
<path d="M0 0 C2 2 2 2 3 14 C14.88 13.34 26.76 12.68 39 12 C39.495 12.99 39.495 12.99 40 14 C27.34218554 15.24795354 14.70457176 15.10177436 2 15 C2 14.01 2 13.02 2 12 C1.01 12 0.02 12 -1 12 C-0.67 8.04 -0.34 4.08 0 0 Z " fill="#2775B6" transform="translate(537,680)"/>
<path d="M0 0 C0.33 0 0.66 0 1 0 C1.05470352 1.70796558 1.09310718 3.41645625 1.125 5.125 C1.14820313 6.07632813 1.17140625 7.02765625 1.1953125 8.0078125 C1 11 1 11 -1 17 C9.89 16.67 20.78 16.34 32 16 C32.33 15.34 32.66 14.68 33 14 C33 15.32 33 16.64 33 18 C21.12 18 9.24 18 -3 18 C-1.875 7.875 -1.875 7.875 -0.9375 3.9375 C-0.67259766 2.80634766 -0.67259766 2.80634766 -0.40234375 1.65234375 C-0.26957031 1.10707031 -0.13679688 0.56179688 0 0 Z " fill="#E2F6FD" transform="translate(464,677)"/>
<path d="M0 0 C0.33 0 0.66 0 1 0 C1.02688151 1.64574566 1.04634123 3.29161413 1.0625 4.9375 C1.07410156 5.85402344 1.08570313 6.77054687 1.09765625 7.71484375 C1 10 1 10 0 11 C-6.83249699 12.16315127 -13.58460239 12.11626804 -20.5 12.0625 C-21.60859375 12.05798828 -22.7171875 12.05347656 -23.859375 12.04882812 C-26.57297399 12.03713158 -29.28645761 12.02074086 -32 12 C-32 10.68 -32 9.36 -32 8 C-31.34 8 -30.68 8 -30 8 C-30 8.99 -30 9.98 -30 11 C-29.29786377 10.84152588 -28.59572754 10.68305176 -27.87231445 10.51977539 C-24.89552459 9.98109408 -22.06516197 9.79208274 -19.04296875 9.68359375 C-17.93115234 9.64169922 -16.81933594 9.59980469 -15.67382812 9.55664062 C-14.52333984 9.51732422 -13.37285156 9.47800781 -12.1875 9.4375 C-10.43276367 9.37272461 -10.43276367 9.37272461 -8.64257812 9.30664062 C-5.76182969 9.20081721 -2.88099877 9.09873175 0 9 C0 6.03 0 3.06 0 0 Z " fill="#DFF3F8" transform="translate(645,294)"/>
<path d="M0 0 C4.66307014 -0.04937279 9.32598873 -0.08570627 13.98925781 -0.10986328 C15.57619883 -0.11993188 17.16312125 -0.13358767 18.75 -0.15087891 C21.02869247 -0.17509001 23.30714006 -0.18647422 25.5859375 -0.1953125 C26.29744965 -0.20563507 27.00896179 -0.21595764 27.74203491 -0.22659302 C29.49631665 -0.22699422 31.24996709 -0.12202209 33 0 C33.66 0.66 34.32 1.32 35 2 C34.01604248 2.02505615 33.03208496 2.0501123 32.01831055 2.07592773 C28.36729943 2.1701082 24.71647384 2.2703029 21.06567383 2.37231445 C19.48563985 2.41562305 17.90556031 2.45730106 16.32543945 2.49731445 C14.05405952 2.55511583 11.78290811 2.6187816 9.51171875 2.68359375 C8.80536789 2.70030624 8.09901703 2.71701874 7.3712616 2.73423767 C4.3335176 2.8259747 1.90376942 3.03207686 -1 4 C-0.67 2.68 -0.34 1.36 0 0 Z " fill="#FDC5BF" transform="translate(344,533)"/>
<path d="M0 0 C0.99 0.33 1.98 0.66 3 1 C3 9.91 3 18.82 3 28 C5.31 28.33 7.62 28.66 10 29 C10 29.33 10 29.66 10 30 C6.7 30 3.4 30 0 30 C0 20.1 0 10.2 0 0 Z " fill="#FEE8E3" transform="translate(241,259)"/>
<path d="M0 0 C1.98 0 3.96 0 6 0 C6.33 2.97 6.66 5.94 7 9 C5.68 9 4.36 9 3 9 C2.67 10.32 2.34 11.64 2 13 C1.34 13 0.68 13 0 13 C0 8.71 0 4.42 0 0 Z " fill="#1983D6" transform="translate(477,457)"/>
<path d="M0 0 C2.66676828 2.20480842 3.90282884 3.30425452 4.390625 6.796875 C4.34421875 7.77140625 4.2978125 8.7459375 4.25 9.75 C4.21390625 10.73484375 4.1778125 11.7196875 4.140625 12.734375 C4.09421875 13.48203125 4.0478125 14.2296875 4 15 C4.99 14.67 5.98 14.34 7 14 C6.88630789 16.45933991 6.75957349 18.9167909 6.625 21.375 C6.5940625 22.07367188 6.563125 22.77234375 6.53125 23.4921875 C6.2265625 28.7734375 6.2265625 28.7734375 4 31 C3.87882813 29.76765625 3.75765625 28.5353125 3.6328125 27.265625 C2.71340299 18.11685293 1.69700195 9.04465935 0 0 Z " fill="#1E76BF" transform="translate(643,348)"/>
<path d="M0 0 C0 3.41099168 -0.49145406 6.63088314 -1 10 C-1.639375 10.103125 -2.27875 10.20625 -2.9375 10.3125 C-3.618125 10.539375 -4.29875 10.76625 -5 11 C-5.33 11.99 -5.66 12.98 -6 14 C-6.66 14 -7.32 14 -8 14 C-8 15.65 -8 17.3 -8 19 C-8.66 19 -9.32 19 -10 19 C-10.33 20.98 -10.66 22.96 -11 25 C-12.8579467 20.15318251 -10.50562898 16.55017192 -8.54296875 12.05859375 C-6.29629648 7.60506366 -3.53780671 3.53780671 0 0 Z " fill="#D4EBF6" transform="translate(559,269)"/>
<path d="M0 0 C1.32 0 2.64 0 4 0 C6 2 6 2 6.22705078 3.87939453 C6.21657715 4.62302246 6.20610352 5.36665039 6.1953125 6.1328125 C6.18886719 6.93847656 6.18242187 7.74414062 6.17578125 8.57421875 C6.15902344 9.41597656 6.14226562 10.25773437 6.125 11.125 C6.11597656 11.97449219 6.10695313 12.82398438 6.09765625 13.69921875 C6.07405647 15.79959884 6.03818483 17.89983444 6 20 C5.67 20 5.34 20 5 20 C4.67 16.04 4.34 12.08 4 8 C2.68 8.33 1.36 8.66 0 9 C0 6.03 0 3.06 0 0 Z " fill="#4693D5" transform="translate(477,486)"/>
<path d="M0 0 C0.66 1.32 1.32 2.64 2 4 C1.31164062 4.72703125 1.31164062 4.72703125 0.609375 5.46875 C-3.59001468 10.05631856 -6.46488174 14.32133509 -9 20 C-10.0625 18.1875 -10.0625 18.1875 -11 16 C-10.67 15.01 -10.34 14.02 -10 13 C-10 13.66 -10 14.32 -10 15 C-9.34 15 -8.68 15 -8 15 C-8.061875 14.2575 -8.12375 13.515 -8.1875 12.75 C-7.96760006 9.52480092 -7.21747812 8.30276574 -5 6 C-4.34 6 -3.68 6 -3 6 C-3 5.34 -3 4.68 -3 4 C-2.34 4 -1.68 4 -1 4 C-0.67 2.68 -0.34 1.36 0 0 Z " fill="#257EC7" transform="translate(559,264)"/>
<path d="M0 0 C0.66 0.33 1.32 0.66 2 1 C2 1.66 2 2.32 2 3 C2.66 3 3.32 3 4 3 C5.77543663 18.23025156 5.77543663 18.23025156 2 25 C-0.11328125 26.203125 -0.11328125 26.203125 -2 27 C-1.34 25.906875 -0.68 24.81375 0 23.6875 C2.84134096 17.98459502 3.16538787 11.84910966 1.31640625 5.7421875 C0.45733972 3.63136608 0.45733972 3.63136608 -1 1 C-0.67 0.67 -0.34 0.34 0 0 Z " fill="#E8F8FC" transform="translate(608,363)"/>
<path d="M0 0 C0.66 0.33 1.32 0.66 2 1 C1.67 1.66 1.34 2.32 1 3 C1.66 3.33 2.32 3.66 3 4 C5.46863195 9.2769839 6.36844295 14.22772713 6 20 C5.67 20 5.34 20 5 20 C4.91363281 19.40832031 4.82726562 18.81664062 4.73828125 18.20703125 C3.40412572 10.7039364 0.19373875 7.3585569 -6 3 C-4.03533587 1.93224776 -2.03144641 0.93446535 0 0 Z " fill="#1D74BB" transform="translate(497,474)"/>
<path d="M0 0 C1.77074917 -0.02705729 3.54161711 -0.04642195 5.3125 -0.0625 C6.29863281 -0.07410156 7.28476562 -0.08570313 8.30078125 -0.09765625 C11 0 11 0 14 1 C15.40664926 1.14492123 16.8181133 1.24628931 18.23046875 1.31640625 C19.43413086 1.37924805 19.43413086 1.37924805 20.66210938 1.44335938 C21.49548828 1.48267578 22.32886719 1.52199219 23.1875 1.5625 C24.03248047 1.60568359 24.87746094 1.64886719 25.74804688 1.69335938 C27.83184433 1.79931518 29.91590103 1.9001502 32 2 C32 2.33 32 2.66 32 3 C28.54168516 3.02949232 25.08340346 3.0469616 21.625 3.0625 C20.65949219 3.07087891 19.69398438 3.07925781 18.69921875 3.08789062 C12.40175711 3.10902305 6.25160137 2.76107198 0 2 C0 1.34 0 0.68 0 0 Z " fill="#EFB4AE" transform="translate(392,351)"/>
<path d="M0 0 C0.474375 0.639375 0.94875 1.27875 1.4375 1.9375 C6.31242797 7.76363343 11.30619363 13.29302434 18 17 C14.25 19 14.25 19 12 19 C10.98780441 17.34071164 9.99043264 15.67236987 9 14 C6.68269678 11.40253922 4.28168348 8.9056022 1.86328125 6.40234375 C0 4 0 4 0 0 Z " fill="#3A7FBD" transform="translate(552,323)"/>
<path d="M0 0 C0.33 0 0.66 0 1 0 C1.33 8.91 1.66 17.82 2 27 C4.64 27.33 7.28 27.66 10 28 C7.36095629 29.41377341 4.92879371 30.37240135 2 31 C2 30.34 2 29.68 2 29 C1.34 29 0.68 29 0 29 C0 19.43 0 9.86 0 0 Z " fill="#DE372C" transform="translate(225,536)"/>
<path d="M0 0 C2.97 0.33 5.94 0.66 9 1 C9.061875 1.78375 9.12375 2.5675 9.1875 3.375 C9.70715862 6.14571126 9.70715862 6.14571126 12 7.0625 C12.99 7.371875 13.98 7.68125 15 8 C16.61068736 8.69337798 18.21454053 9.40277265 19.8125 10.125 C20.99779297 10.65480469 20.99779297 10.65480469 22.20703125 11.1953125 C22.79871094 11.46085937 23.39039063 11.72640625 24 12 C23.34 12.66 22.68 13.32 22 14 C5.55330116 5.4697302 5.55330116 5.4697302 0 1 C0 0.67 0 0.34 0 0 Z " fill="#387FBE" transform="translate(595,315)"/>
<path d="M0 0 C0.99 0.33 1.98 0.66 3 1 C2.67 1.66 2.34 2.32 2 3 C1.01 3.33 0.02 3.66 -1 4 C-1.433125 5.2065625 -1.433125 5.2065625 -1.875 6.4375 C-3 9 -3 9 -5.5625 10.0625 C-6.366875 10.371875 -7.17125 10.68125 -8 11 C-8.88693303 13.04105639 -8.88693303 13.04105639 -9 15 C-9.66 15 -10.32 15 -11 15 C-9.12910798 8.29597026 -5.81194517 3.87463011 0 0 Z " fill="#F8DBD5" transform="translate(408,442)"/>
<path d="M0 0 C2.67499315 1.31667951 5.29441063 2.69845762 7.890625 4.1640625 C8.59960938 4.56367188 9.30859375 4.96328125 10.0390625 5.375 C10.76867187 5.7875 11.49828125 6.2 12.25 6.625 C12.99507812 7.04523438 13.74015625 7.46546875 14.5078125 7.8984375 C16.33902763 8.93143065 18.16957944 9.96559955 20 11 C17 12 17 12 14.87890625 11.00390625 C14.11449219 10.52824219 13.35007812 10.05257813 12.5625 9.5625 C9.1625928 7.45122091 8.18767439 7 4 7 C4 6.34 4 5.68 4 5 C3.01 4.67 2.02 4.34 1 4 C0.3125 1.9375 0.3125 1.9375 0 0 Z " fill="#2478BD" transform="translate(570,341)"/>
<path d="M0 0 C1.65 0 3.3 0 5 0 C5.13277344 1.02480469 5.26554688 2.04960937 5.40234375 3.10546875 C5.58064088 4.4661574 5.75903123 5.82683385 5.9375 7.1875 C6.02451172 7.86103516 6.11152344 8.53457031 6.20117188 9.22851562 C6.67825477 12.85081166 7.23012035 16.42803585 8 20 C7.01 19.34 6.02 18.68 5 18 C4.48828125 15.3984375 4.48828125 15.3984375 4.3125 12.375 C4.21388672 10.87066406 4.21388672 10.87066406 4.11328125 9.3359375 C4.07589844 8.56507813 4.03851562 7.79421875 4 7 C3.01 8.485 3.01 8.485 2 10 C1.875 3.25 1.875 3.25 3 1 C2.01 0.67 1.02 0.34 0 0 Z " fill="#D8EDF7" transform="translate(576,365)"/>
<path d="M0 0 C2.52588702 2.36292656 3.88820837 3.66462511 5 7 C5.07051114 9.73865287 5.09357765 12.45027588 5.0625 15.1875 C5.05798828 15.93708984 5.05347656 16.68667969 5.04882812 17.45898438 C5.03706354 19.30602383 5.01912865 21.15302213 5 23 C4.67 23 4.34 23 4 23 C3.67 18.38 3.34 13.76 3 9 C1.68 9.33 0.36 9.66 -1 10 C-0.34 9.01 0.32 8.02 1 7 C0.68269476 3.36060068 0.68269476 3.36060068 0 0 Z " fill="#DDF2F8" transform="translate(497,481)"/>
<path d="M0 0 C0.99 0 1.98 0 3 0 C5.10306598 3.41748222 5.40603518 6.02085525 5 10 C3.625 12.875 3.625 12.875 2 15 C1.34 15 0.68 15 0 15 C-0.33 15.99 -0.66 16.98 -1 18 C-1.33 17.34 -1.66 16.68 -2 16 C-4.02463255 15.34786708 -4.02463255 15.34786708 -6 15 C-4.865625 14.525625 -3.73125 14.05125 -2.5625 13.5625 C0.75740166 12.36377917 0.75740166 12.36377917 2 11 C2.46331437 5.12353969 2.46331437 5.12353969 0 0 Z " fill="#DAF0FB" transform="translate(482,456)"/>
<path d="M0 0 C0.33 0 0.66 0 1 0 C1.24091535 7.2274605 0.34495828 13.90294338 -1 21 C-1.66 21 -2.32 21 -3 21 C-3.33 21.66 -3.66 22.32 -4 23 C-3.20736384 15.23216563 -1.58110513 7.6370361 0 0 Z " fill="#CCE8F6" transform="translate(482,591)"/>
<path d="M0 0 C1.56454159 4.02014661 0.46223974 7.69925681 -0.4375 11.75 C-0.58509766 12.44738281 -0.73269531 13.14476562 -0.88476562 13.86328125 C-1.24868033 15.5772021 -1.62329068 17.28884581 -2 19 C-2.33 19 -2.66 19 -3 19 C-3.33 14.71 -3.66 10.42 -4 6 C-3.01 6 -2.02 6 -1 6 C-1.020625 5.195625 -1.04125 4.39125 -1.0625 3.5625 C-1 1 -1 1 0 0 Z " fill="#D7EFF9" transform="translate(510,618)"/>
<path d="M0 0 C13.86 0.495 13.86 0.495 28 1 C28 1.33 28 1.66 28 2 C23.89587259 2.16764279 19.79169203 2.3339474 15.6875 2.5 C13.93663086 2.57154297 13.93663086 2.57154297 12.15039062 2.64453125 C11.03212891 2.68964844 9.91386719 2.73476563 8.76171875 2.78125 C7.2142395 2.8440918 7.2142395 2.8440918 5.63549805 2.90820312 C3.75788811 2.97360204 1.87874855 3 0 3 C0 2.01 0 1.02 0 0 Z " fill="#DF3A2F" transform="translate(382,592)"/>
<path d="M0 0 C1.87365234 -0.00386719 1.87365234 -0.00386719 3.78515625 -0.0078125 C6.9375 0.125 6.9375 0.125 8.9375 1.125 C8.9375 1.785 8.9375 2.445 8.9375 3.125 C8.37804687 2.96644531 7.81859375 2.80789063 7.2421875 2.64453125 C2.63468106 1.60588997 -2.65625186 1.04029365 -7.046875 3.01953125 C-8.86445178 4.20178672 -8.86445178 4.20178672 -11.0625 6.125 C-10.7325 4.475 -10.4025 2.825 -10.0625 1.125 C-6.54512679 -0.04745774 -3.7049868 -0.00766285 0 0 Z " fill="#D6EEFA" transform="translate(597.0625,282.875)"/>
<path d="M0 0 C1.0625 1.8125 1.0625 1.8125 2 4 C1.67 4.99 1.34 5.98 1 7 C-5.6 7 -12.2 7 -19 7 C-19 6.67 -19 6.34 -19 6 C-12.73 5.67 -6.46 5.34 0 5 C0 3.35 0 1.7 0 0 Z " fill="#BCE4FC" transform="translate(575,686)"/>
<path d="M0 0 C0.33 0 0.66 0 1 0 C1.50604924 2.39469729 2.00499517 4.79051717 2.5 7.1875 C2.64308594 7.86103516 2.78617188 8.53457031 2.93359375 9.22851562 C3.68069842 12.87509793 4.17352282 16.27648957 4 20 C3.01 19.67 2.02 19.34 1 19 C1.020625 17.865625 1.04125 16.73125 1.0625 15.5625 C1.41577477 12.18424326 1.41577477 12.18424326 0 11 C-0.07226502 9.14712498 -0.0838122 7.29166122 -0.0625 5.4375 C-0.05347656 4.42558594 -0.04445313 3.41367187 -0.03515625 2.37109375 C-0.02355469 1.58863281 -0.01195312 0.80617188 0 0 Z " fill="#2277BC" transform="translate(523,607)"/>
<path d="M0 0 C-7.17859349 2.04061541 -13.52605426 3.37369729 -21 3 C-17.5275307 0.68502047 -15.173209 0.38618761 -11.0625 -0.1875 C-9.83660156 -0.36667969 -8.61070312 -0.54585937 -7.34765625 -0.73046875 C-4.47429544 -0.96181285 -2.67489081 -0.94526216 0 0 Z " fill="#C9E4F5" transform="translate(594,256)"/>
<path d="M0 0 C2 1 2 1 3.125 3.875 C4.45264471 8.84329545 4.16599322 13.90031948 4 19 C3.67 19 3.34 19 3 19 C2.49356447 16.77228658 1.9951038 14.54275924 1.5 12.3125 C1.2215625 11.07113281 0.943125 9.82976563 0.65625 8.55078125 C0.10645874 5.57601782 -0.13795705 3.00631398 0 0 Z " fill="#C9E6F9" transform="translate(525,612)"/>
<path d="M0 0 C1.89492188 0.01353516 1.89492188 0.01353516 3.828125 0.02734375 C4.79234375 0.03894531 5.7565625 0.05054688 6.75 0.0625 C6.75 0.3925 6.75 0.7225 6.75 1.0625 C2.46 1.0625 -1.83 1.0625 -6.25 1.0625 C-6.25 1.7225 -6.25 2.3825 -6.25 3.0625 C-7.24 3.0625 -8.23 3.0625 -9.25 3.0625 C-9.58 4.0525 -9.91 5.0425 -10.25 6.0625 C-10.91 5.7325 -11.57 5.4025 -12.25 5.0625 C-11.92 3.7425 -11.59 2.4225 -11.25 1.0625 C-7.49600202 -0.1414337 -3.91782588 -0.03627617 0 0 Z " fill="#F6C9C2" transform="translate(369.25,257.9375)"/>
<path d="M0 0 C0.33 0 0.66 0 1 0 C1.33278764 6.81598387 1.24201565 11.92122066 -2 18 C-3.51553092 14.02549507 -2.49888623 10.79518851 -1.5625 6.75 C-1.27503906 5.48671875 -0.98757813 4.2234375 -0.69140625 2.921875 C-0.46324219 1.95765625 -0.23507812 0.9934375 0 0 Z " fill="#CEECFB" transform="translate(464,677)"/>
<path d="M0 0 C1.3805087 3.76668598 0.59568159 6.44789173 -0.4375 10.25 C-0.72496094 11.32765625 -1.01242187 12.4053125 -1.30859375 13.515625 C-1.53675781 14.33546875 -1.76492188 15.1553125 -2 16 C-2.33 16 -2.66 16 -3 16 C-3.33 12.7 -3.66 9.4 -4 6 C-3.01 5.67 -2.02 5.34 -1 5 C-0.67 3.35 -0.34 1.7 0 0 Z " fill="#1C74BE" transform="translate(492,544)"/>
<path d="M0 0 C0 0.99 0 1.98 0 3 C0.33 2.34 0.66 1.68 1 1 C1.99 1.33 2.98 1.66 4 2 C3.649375 2.721875 3.29875 3.44375 2.9375 4.1875 C1.89590983 7.3122705 2.10903428 8.88161996 3 12 C0.23455278 8.54319097 -1.84921278 4.85658398 -4 1 C-2 0 -2 0 0 0 Z " fill="#CD2B20" transform="translate(443,445)"/>
<path d="M0 0 C2.77042109 2.77042109 2.39796106 4.76533805 2.625 8.625 C2.69976563 9.81351563 2.77453125 11.00203125 2.8515625 12.2265625 C2.92503906 13.59941406 2.92503906 13.59941406 3 15 C2.67 14.01 2.34 13.02 2 12 C1.01 12 0.02 12 -1 12 C-0.67 8.04 -0.34 4.08 0 0 Z " fill="#2C7CC2" transform="translate(537,680)"/>
<path d="M0 0 C2.80844958 2.27771895 3.91735478 3.36197888 4.390625 7.015625 C4.34421875 8.08296875 4.2978125 9.1503125 4.25 10.25 C4.21390625 11.32765625 4.1778125 12.4053125 4.140625 13.515625 C4.09421875 14.33546875 4.0478125 15.1553125 4 16 C2.06757715 12.65479742 1.4536147 9.55232518 0.875 5.75 C0.70742188 4.67234375 0.53984375 3.5946875 0.3671875 2.484375 C0.24601563 1.66453125 0.12484375 0.8446875 0 0 Z " fill="#2B78B7" transform="translate(643,348)"/>
<path d="M0 0 C1.77641602 5.55130005 1.53883587 10.76365102 -1 16 C-1.66 15.34 -2.32 14.68 -3 14 C-2.61765316 9.12507777 -1.4234304 4.64987264 0 0 Z " fill="#C6E1F2" transform="translate(477,614)"/>
<path d="M0 0 C1.6875 1.5 1.6875 1.5 3 4 C2.35208262 6.82923922 1.23902204 9.38216883 0 12 C-0.66 12 -1.32 12 -2 12 C-1 3.42857143 -1 3.42857143 0 0 Z " fill="#C3DEEE" transform="translate(490,556)"/>
<path d="M0 0 C0 0.33 0 0.66 0 1 C-1.093125 1.103125 -2.18625 1.20625 -3.3125 1.3125 C-7.1449021 2.02701565 -7.52005442 2.40196178 -10 5 C-12.1875 4.6875 -12.1875 4.6875 -14 4 C-9.57391359 -0.5688634 -5.97980322 -0.46900417 0 0 Z " fill="#1A6CB6" transform="translate(601,284)"/>
<path d="M0 0 C3.95820859 0.56545837 6.6659053 1.80902348 10 4 C9.01 5.485 9.01 5.485 8 7 C7.67 6.34 7.34 5.68 7 5 C6.01 4.67 5.02 4.34 4 4 C4 3.34 4 2.68 4 2 C3.01 2.33 2.02 2.66 1 3 C0.67 2.01 0.34 1.02 0 0 Z " fill="#DFF1F8" transform="translate(623,261)"/>
<path d="M0 0 C0.33 0 0.66 0 1 0 C1.16918268 1.58306647 1.33523936 3.16646719 1.5 4.75 C1.5928125 5.63171875 1.685625 6.5134375 1.78125 7.421875 C2 10 2 10 2 14 C1.34 14.66 0.68 15.32 0 16 C0 10.72 0 5.44 0 0 Z " fill="#F03023" transform="translate(297,677)"/>
<path d="M0 0 C2.32101984 3.48152976 2.69903201 5.86169011 3 10 C2.34 10.66 1.68 11.32 1 12 C0.03929566 9.11788698 -0.10581883 7.30149956 -0.0625 4.3125 C-0.05347656 3.50425781 -0.04445313 2.69601562 -0.03515625 1.86328125 C-0.02355469 1.24839844 -0.01195312 0.63351562 0 0 Z " fill="#3F86C8" transform="translate(542,535)"/>
<path d="M0 0 C1.31223496 3.93670488 0.24296256 6.12488144 -1 10 C-2.65 10.33 -4.3 10.66 -6 11 C-4.02 7.37 -2.04 3.74 0 0 Z " fill="#C0281F" transform="translate(445,498)"/>
<path d="M0 0 C0.5625 1.9375 0.5625 1.9375 1 4 C0.67 4.33 0.34 4.66 0 5 C-0.23075082 6.34747084 -0.41153063 7.70377565 -0.5625 9.0625 C-0.7790625 11.0115625 -0.7790625 11.0115625 -1 13 C-3 10 -3 10 -2.75 6.5 C-2 3 -2 3 0 0 Z " fill="#2274BA" transform="translate(586,290)"/>
<path d="M0 0 C2.04219706 1.69179328 2.91793306 2.63727666 3.51171875 5.26171875 C3.56972656 6.06222656 3.62773438 6.86273438 3.6875 7.6875 C3.75324219 8.49574219 3.81898438 9.30398438 3.88671875 10.13671875 C3.92410156 10.75160156 3.96148438 11.36648438 4 12 C2 11 2 11 0.875 7.6875 C0 4 0 4 0 0 Z " fill="#D8F0FA" transform="translate(641,347)"/>
<path d="M0 0 C3.37503669 1.1858237 5.64722731 2.27573689 8 5 C6.02 5.33 4.04 5.66 2 6 C1.34 4.02 0.68 2.04 0 0 Z " fill="#227AC2" transform="translate(562,336)"/>
<path d="M0 0 C2.475 0.495 2.475 0.495 5 1 C4.67 2.98 4.34 4.96 4 7 C2 5.1875 2 5.1875 0 3 C0 2.01 0 1.02 0 0 Z " fill="#2079C1" transform="translate(585,303)"/>
<path d="M0 0 C3.465 1.98 3.465 1.98 7 4 C6.401875 4.144375 5.80375 4.28875 5.1875 4.4375 C3.43849596 4.8872439 1.71322977 5.42892341 0 6 C-1.24546405 3.50907189 -0.7767578 2.58919267 0 0 Z " fill="#DCEDF4" transform="translate(627,334)"/>
<path d="M0 0 C0.66 1.32 1.32 2.64 2 4 C0 5 0 5 -1.9453125 4.44140625 C-2.66460938 4.15136719 -3.38390625 3.86132812 -4.125 3.5625 C-4.84945312 3.27503906 -5.57390625 2.98757813 -6.3203125 2.69140625 C-7.15175781 2.34916016 -7.15175781 2.34916016 -8 2 C-5.33333333 1.33333333 -2.66666667 0.66666667 0 0 Z " fill="#1C75BB" transform="translate(625,256)"/>
<path d="M0 0 C0.66 0.99 1.32 1.98 2 3 C1.125 6.1875 1.125 6.1875 0 9 C-0.33 9 -0.66 9 -1 9 C-1.625 5.625 -1.625 5.625 -2 2 C-1.34 1.34 -0.68 0.68 0 0 Z " fill="#CFE5EE" transform="translate(642,388)"/>
<path d="M0 0 C0.66 0 1.32 0 2 0 C1.01 3.3 0.02 6.6 -1 10 C-1.66 9.01 -2.32 8.02 -3 7 C-2.21069203 4.51064409 -1.1651105 2.330221 0 0 Z " fill="#C5E4F4" transform="translate(584,289)"/>
<path d="M0 0 C0.33 0.66 0.66 1.32 1 2 C0.67 2.66 0.34 3.32 0 4 C-0.66 4 -1.32 4 -2 4 C-2.33 4.99 -2.66 5.98 -3 7 C-3.33 6.34 -3.66 5.68 -4 5 C-6.02463255 4.34786708 -6.02463255 4.34786708 -8 4 C-6.865625 3.525625 -5.73125 3.05125 -4.5625 2.5625 C-1.24259834 1.36377917 -1.24259834 1.36377917 0 0 Z " fill="#D0E9F6" transform="translate(484,467)"/>
<path d="M0 0 C-2.75 1.625 -2.75 1.625 -6 3 C-8.375 2.1875 -8.375 2.1875 -10 1 C-3.375 -1.125 -3.375 -1.125 0 0 Z " fill="#DDF1F5" transform="translate(617,419)"/>
<path d="M0 0 C2.97 0.33 5.94 0.66 9 1 C8.67 2.32 8.34 3.64 8 5 C4.35446828 3.7191375 2.83328987 2.83328987 0 0 Z " fill="#2075BC" transform="translate(595,315)"/>
<path d="M0 0 C2.97 0.33 5.94 0.66 9 1 C6.07735566 2.46132217 4.07536854 3.34099246 1 4 C0.67 2.68 0.34 1.36 0 0 Z " fill="#CC392F" transform="translate(226,563)"/>
<path d="M0 0 C2 2 2 2 2 5 C-0.31 4.34 -2.62 3.68 -5 3 C-5 2.34 -5 1.68 -5 1 C-2.625 0.375 -2.625 0.375 0 0 Z " fill="#D52F1E" transform="translate(377,529)"/>
<path d="M0 0 C0.66 0.33 1.32 0.66 2 1 C0.68 2.32 -0.64 3.64 -2 5 C-3.32 4.34 -4.64 3.68 -6 3 C-4.03533587 1.93224776 -2.03144641 0.93446535 0 0 Z " fill="#2572B4" transform="translate(497,474)"/>
<path d="M0 0 C0.66 0.33 1.32 0.66 2 1 C2 1.66 2 2.32 2 3 C2.66 3 3.32 3 4 3 C3.67 4.65 3.34 6.3 3 8 C1.10786631 5.61426621 -0.02391783 3.92824652 -1 1 C-0.67 0.67 -0.34 0.34 0 0 Z " fill="#DBF2F9" transform="translate(608,363)"/>
<path d="M0 0 C1.98 0 3.96 0 6 0 C4.3545622 1.68762851 2.68711423 3.3540349 1 5 C0.67 5 0.34 5 0 5 C0 3.35 0 1.7 0 0 Z " fill="#3786CD" transform="translate(561,262)"/>
</svg>
